<svg xmlns="http://www.w3.org/2000/svg" xmlns:xlink="http://www.w3.org/1999/xlink" width="600" height="600" viewBox="0 0 600 600">
  <defs>
    <clipPath id="clip-bcx-logo-600x600-gold">
      <rect width="600" height="600"/>
    </clipPath>
  </defs>
  <g id="bcx-logo-600x600-gold" clip-path="url(#clip-bcx-logo-600x600-gold)">
    <g id="Ellipse_85" data-name="Ellipse 85" transform="translate(12)" fill="#1c263f" stroke="#c0b382" stroke-width="6">
      <circle cx="288.5" cy="288.5" r="288.5" stroke="none"/>
      <circle cx="288.5" cy="288.5" r="285.5" fill="none"/>
    </g>
    <g id="Group_4" data-name="Group 4" transform="translate(44 -33)">
      <path id="Path_1" data-name="Path 1" d="M206.36,341.827c0-21.239-12.31-33.791-30.415-38.381,13.032-6.757,22.208-17.864,22.208-33.791,0-29.875-21.527-39.05-46.5-40.183V200.16H141.239v29.188h-9.3V200.16H121.52v29.188H77.943v20.517l13.76.722V362.825c0,4.826-2.894,6.276-7,6.757l-7.966.722v19.549h44.78v27.955h10.414V389.853h9.3v27.955h10.414V389.671c35.534-1.89,54.707-18.375,54.707-47.85Zm-85.2-90.276H140.7c15.692,0,27.515,3.863,27.515,21.239,0,12.792-8.448,22.449-29.206,22.449H121.15V251.55Zm22.689,115.619H121.156V316.724h23.9c19.067,0,30.174,8.688,30.174,24.862,0,14.723-7.726,25.584-31.378,25.584Z" transform="translate(31.31 -15.656)" fill="#c0b382"/>
      <path id="Path_2" data-name="Path 2" d="M484.035,341.345l-24.621-1.691v19.308c0,4.585-.722,6.516-5.066,7.966-4.585,1.45-10.86,2.172-17.623,2.172-33.55.722-46.1-22.689-46.1-60.583s15.2-58.171,45.62-58.171c4.826,0,11.1.481,15.692,1.931,4.344,1.45,5.066,3.381,5.066,7.966v18.827l24.621-1.691V236.346A110.882,110.882,0,0,0,437,226.46v-26.3H426.581v26.781a87.312,87.312,0,0,0-9.3,1.45V200.16H406.862v31.207c-25.689,9.334-46.412,32.939-46.412,79.081,0,42.778,16.191,68.925,46.412,78.453v28.912h10.414V391.432q4.482.792,9.3,1.186v25.2H437V393c15.31-.094,33.978-3.006,47.04-9.892V341.351Z" transform="translate(-85.848 -15.656)" fill="#c0b382"/>
      <path id="Path_3" data-name="Path 3" d="M274.893,402.456l-1.468-2.542,106.532-61.505V132.918L201.993,30.173,24.035,132.918v205.49l105.874,61.129-1.468,2.542L21.1,340.105V131.222L201.993,26.78l180.9,104.442V340.105Z" transform="translate(54.287 55.941)" fill="#c0b382"/>
      <path id="Path_4" data-name="Path 4" d="M263.338,404.013l29.922-17.934,29.963-17.852,60-35.581-.928,1.614-.5-54.959-.434-54.954-.346-54.954-.17-27.48-.106-27.474,1.714,2.959-47.7-27.3L287.084,62.755,191.83,7.919h3.916L100.491,62.755,52.823,90.094l-47.7,27.3,1.7-2.953-.106,27.474-.17,27.48L6.2,224.346,5.753,279.3,5.236,334.26l-.91-1.579L62.38,367.117l28.988,17.277,28.947,17.353-29.5-16.39L61.358,368.889,2.507,335.833l-.9-.5L1.6,334.26,1.086,279.3.64,224.346.288,169.393l-.176-27.48L.006,114.439,0,112.478l1.714-1L49.2,83.825,96.716,56.21,191.83,1.133,193.791,0l1.955,1.133L290.865,56.21l47.516,27.609,47.486,27.656,1.72,1-.012,1.961-.106,27.474-.164,27.48-.346,54.954-.434,54.954-.5,54.959-.012,1.092-.922.517L324.274,370.04l-30.444,17.024Z" transform="translate(63 67)" fill="#c0b382"/>
      <g id="Group_1" data-name="Group 1" transform="translate(182.963 447.155)">
        <path id="Path_5" data-name="Path 5" d="M276.419,776.778l-9.98-1.7-4.467-5.248h-2.689l-4.115-4.585V756.39l.933-.517-3.035-8.125-9.334-17.318-1.1-12.175-17.406,2.219-13.6-10.555L227.606,704l-17.494-11.26-5-18.427.053-.112L218,647.95l.7,25.137,10.819,12.146,23.987,1.338,22.965,4,.006.675-22.989-4-24.28-1.356-11.172-12.539L217.4,650.7,205.82,674.379l4.872,17.928L229.1,704.16l-16.109,5.97,12.428,9.639,17.823-2.272,1.145,12.733,9.3,17.265,3.246,8.682-1.092.6v8.2l3.74,4.168h2.7l4.509,5.3,9.739,1.661Z" transform="translate(-204.664 -647.727)" fill="#c0b382"/>
        <path id="Path_6" data-name="Path 6" d="M326.692,776.778l-.112-.663,9.739-1.661,4.509-5.3h2.7l3.74-4.168v-8.2l-1.092-.6,3.264-8.729,9.275-17.218,1.151-12.733,17.823,2.272,12.428-9.639-16.109-5.97,18.41-11.853,4.867-17.928L385.713,650.7l-.64,22.654L373.9,685.891l-.141.012-24.122,1.344-23.006,4,.006-.675,22.983-4,23.963-1.338,10.825-12.146.7-25.137L398,674.308l-5,18.427L375.5,704l15.979,5.923-13.6,10.555-.141-.018-17.271-2.2-1.092,12.175-.035.059-9.3,17.259-3.035,8.125.928.517v8.853l-4.109,4.585h-2.689l-4.467,5.248Z" transform="translate(-254.825 -647.727)" fill="#c0b382"/>
        <path id="Path_7" data-name="Path 7" d="M258.745,757.642,242.76,742.52l17.212,4.056Zm-13.708-13.9,13.185,12.475,1.016-9.129Z" transform="translate(-220.211 -686.78)" fill="#c0b382"/>
        <rect id="Rectangle_1" data-name="Rectangle 1" width="16.326" height="0.675" transform="translate(20.333 72.369) rotate(-79.3)" fill="#c0b382"/>
        <path id="Path_8" data-name="Path 8" d="M260.984,734.8,245.95,712.08l.558-.37,14.365,21.7,9.17-20.312.616.276Z" transform="translate(-221.529 -674.057)" fill="#c0b382"/>
        <path id="Path_9" data-name="Path 9" d="M374.9,734.8l-9.587-21.427.611-.276,9.093,20.312,14.447-21.7.558.37Z" transform="translate(-270.819 -674.057)" fill="#c0b382"/>
        <path id="Path_10" data-name="Path 10" d="M382.431,757.637l-1.321-11.06,17.3-4.056Zm-.581-10.543,1.092,9.134,13.2-12.487-14.283,3.352Z" transform="translate(-277.343 -686.78)" fill="#c0b382"/>
        <rect id="Rectangle_2" data-name="Rectangle 2" width="0.675" height="16.326" transform="translate(119.588 56.426) rotate(-10.69)" fill="#c0b382"/>
        <path id="Path_11" data-name="Path 11" d="M294.791,752.511l-12.856-8.53-.6-18.521,27.263,20.682-13.807,6.37Zm-12.193-8.9,12.252,8.131,12.445-5.747-25.243-19.15Z" transform="translate(-236.139 -679.735)" fill="#c0b382"/>
        <path id="Path_12" data-name="Path 12" d="M338.941,752.511l-13.361-6.375,27.227-20.676-.546,18.527-13.32,8.53ZM326.866,746l12.023,5.741,12.71-8.136.493-16.76L326.866,746Z" transform="translate(-254.412 -679.735)" fill="#c0b382"/>
        <path id="Path_13" data-name="Path 13" d="M351.572,805.285l-6.957-4.1-5.565-16.907,9.041-10.408.07-.035,17.024-7.291.264.616L348.5,774.424l-8.688,10,5.372,16.308,6.733,3.974Z" transform="translate(-259.975 -696.699)" fill="#c0b382"/>
        <path id="Path_14" data-name="Path 14" d="M283.21,805.285l-.352-.575,6.728-4.086L295.1,784.21l-9.129-9.9-16.655-7.156.27-.616,16.784,7.209,9.493,10.3-5.724,17.024Z" transform="translate(-231.179 -696.699)" fill="#c0b382"/>
        <path id="Path_15" data-name="Path 15" d="M360.709,801.663,353.94,778.61l16.508,5.36-.206.64-15.3-4.966,6.411,21.826Z" transform="translate(-266.123 -701.683)" fill="#c0b382"/>
        <rect id="Rectangle_3" data-name="Rectangle 3" width="0.675" height="31.049" transform="matrix(0.994, -0.111, 0.111, 0.994, 87.98, 77.484)" fill="#c0b382"/>
        <path id="Path_16" data-name="Path 16" d="M281.025,801.575l-.652-.182,6.117-21.938L271.5,784.527l-.217-.64,16.2-5.477Z" transform="translate(-231.989 -701.601)" fill="#c0b382"/>
        <rect id="Rectangle_4" data-name="Rectangle 4" width="31.125" height="0.675" transform="matrix(0.101, -0.995, 0.995, 0.101, 51.518, 108.256)" fill="#c0b382"/>
        <rect id="Rectangle_5" data-name="Rectangle 5" width="9.839" height="0.675" transform="matrix(0.086, -0.996, 0.996, 0.086, 96.333, 73.825)" fill="#c0b382"/>
        <path id="Path_17" data-name="Path 17" d="M322.314,782.213l-7.655-21.351-7.5,21.075-5.735-15.322-3.317,4.444-.54-.4,4.056-5.43,5.518,14.747,7.508-21.116,7.632,21.286,4.943-14.94,4.2,5.565-.534.405-3.428-4.538Z" transform="translate(-242.845 -693.527)" fill="#c0b382"/>
        <rect id="Rectangle_6" data-name="Rectangle 6" width="0.675" height="9.099" transform="matrix(0.481, -0.877, 0.877, 0.481, 97.211, 66.022)" fill="#c0b382"/>
        <rect id="Rectangle_7" data-name="Rectangle 7" width="0.675" height="9.974" transform="matrix(0.994, -0.107, 0.107, 0.994, 45.763, 64.115)" fill="#c0b382"/>
        <rect id="Rectangle_8" data-name="Rectangle 8" width="8.994" height="0.675" transform="matrix(0.873, -0.487, 0.487, 0.873, 38.089, 69.878)" fill="#c0b382"/>
        <path id="Path_18" data-name="Path 18" d="M317.4,827.561l-13.185-2.483.123-.657,13.068,2.454,13.05-2.342.117.657Z" transform="translate(-245.587 -720.6)" fill="#c0b382"/>
        <path id="Path_19" data-name="Path 19" d="M320.484,847.007l-8.964-2.971,8.888-16.026,9.041,16.026Zm-7.978-3.352,7.978,2.642,7.978-2.642L320.42,829.39l-7.913,14.265Z" transform="translate(-248.606 -722.083)" fill="#c0b382"/>
        <path id="Path_20" data-name="Path 20" d="M346.36,840.249l-3.88-2.166,2-4.133,4.467-2.26,1.338,5.06-3.921,3.493Zm-3-2.442,2.906,1.62,3.258-2.9L348.5,832.67l-3.522,1.779Z" transform="translate(-261.391 -723.603)" fill="#c0b382"/>
        <path id="Path_21" data-name="Path 21" d="M301.642,840.253l-3.921-3.493,1.338-5.06,4.467,2.26,2,4.133-3.88,2.166Zm-3.17-3.722,3.258,2.9,2.906-1.62-1.62-3.358-3.522-1.779Z" transform="translate(-242.907 -723.607)" fill="#c0b382"/>
        <path id="Path_22" data-name="Path 22" d="M329.152,853.409l-8.63-2.331-8.131,2.331-.182-.652,8.307-2.378,8.812,2.378Z" transform="translate(-248.891 -731.321)" fill="#c0b382"/>
        <circle id="Ellipse_1" data-name="Ellipse 1" cx="0.875" cy="0.875" r="0.875" transform="translate(12.363 0.141)" fill="#c0b382"/>
        <circle id="Ellipse_2" data-name="Ellipse 2" cx="0.875" cy="0.875" r="0.875" transform="translate(0 25.719)" fill="#c0b382"/>
        <circle id="Ellipse_3" data-name="Ellipse 3" cx="0.875" cy="0.875" r="0.875" transform="translate(4.972 43.976)" fill="#c0b382"/>
        <circle id="Ellipse_4" data-name="Ellipse 4" cx="0.875" cy="0.875" r="0.875" transform="translate(22.83 55.412)" fill="#c0b382"/>
        <circle id="Ellipse_5" data-name="Ellipse 5" cx="0.875" cy="0.875" r="0.875" transform="translate(38.416 58.998)" fill="#c0b382"/>
        <circle id="Ellipse_6" data-name="Ellipse 6" cx="0.875" cy="0.875" r="0.875" transform="translate(45.42 63.296)" fill="#c0b382"/>
        <circle id="Ellipse_7" data-name="Ellipse 7" cx="0.875" cy="0.875" r="0.875" transform="translate(70.88 65.333)" fill="#c0b382"/>
        <circle id="Ellipse_8" data-name="Ellipse 8" cx="0.875" cy="0.875" r="0.875" transform="translate(83.525 71.426)" fill="#c0b382"/>
        <circle id="Ellipse_9" data-name="Ellipse 9" cx="0.875" cy="0.875" r="0.875" transform="translate(87.535 76.534)" fill="#c0b382"/>
        <circle id="Ellipse_10" data-name="Ellipse 10" cx="0.875" cy="0.875" r="0.875" transform="translate(103.285 81.658)" fill="#c0b382"/>
        <circle id="Ellipse_11" data-name="Ellipse 11" cx="0.875" cy="0.875" r="0.875" transform="translate(78.623 86.296)" fill="#c0b382"/>
        <circle id="Ellipse_12" data-name="Ellipse 12" cx="0.875" cy="0.875" r="0.875" transform="translate(96.693 63.26)" fill="#c0b382"/>
        <circle id="Ellipse_13" data-name="Ellipse 13" cx="0.875" cy="0.875" r="0.875" transform="translate(95.818 72.812)" fill="#c0b382"/>
        <circle id="Ellipse_14" data-name="Ellipse 14" cx="0.875" cy="0.875" r="0.875" transform="translate(104.471 69.107)" fill="#c0b382"/>
        <circle id="Ellipse_15" data-name="Ellipse 15" cx="0.875" cy="0.875" r="0.875" transform="translate(122.065 71.362)" fill="#c0b382"/>
        <circle id="Ellipse_16" data-name="Ellipse 16" cx="0.875" cy="0.875" r="0.875" transform="translate(103.385 58.998)" fill="#c0b382"/>
        <circle id="Ellipse_17" data-name="Ellipse 17" cx="0.875" cy="0.875" r="0.875" transform="translate(119.006 55.412)" fill="#c0b382"/>
        <circle id="Ellipse_18" data-name="Ellipse 18" cx="0.875" cy="0.875" r="0.875" transform="translate(135.127 61.399)" fill="#c0b382"/>
        <circle id="Ellipse_19" data-name="Ellipse 19" cx="0.875" cy="0.875" r="0.875" transform="translate(136.964 43.976)" fill="#c0b382"/>
        <circle id="Ellipse_20" data-name="Ellipse 20" cx="0.875" cy="0.875" r="0.875" transform="translate(46.295 72.911)" fill="#c0b382"/>
        <circle id="Ellipse_21" data-name="Ellipse 21" cx="0.875" cy="0.875" r="0.875" transform="translate(38.669 81.705)" fill="#c0b382"/>
        <circle id="Ellipse_22" data-name="Ellipse 22" cx="0.875" cy="0.875" r="0.875" transform="translate(57.953 71.426)" fill="#c0b382"/>
        <circle id="Ellipse_23" data-name="Ellipse 23" cx="0.875" cy="0.875" r="0.875" transform="translate(54.055 76.422)" fill="#c0b382"/>
        <circle id="Ellipse_24" data-name="Ellipse 24" cx="0.875" cy="0.875" r="0.875" transform="translate(47.768 98.724)" fill="#c0b382"/>
        <circle id="Ellipse_25" data-name="Ellipse 25" cx="0.875" cy="0.875" r="0.875" transform="translate(94.075 98.724)" fill="#c0b382"/>
        <circle id="Ellipse_26" data-name="Ellipse 26" cx="0.875" cy="0.875" r="0.875" transform="translate(50.099 116.5)" fill="#c0b382"/>
        <circle id="Ellipse_27" data-name="Ellipse 27" cx="0.875" cy="0.875" r="0.875" transform="translate(53.938 120.879)" fill="#c0b382"/>
        <circle id="Ellipse_28" data-name="Ellipse 28" cx="0.875" cy="0.875" r="0.875" transform="translate(56.685 120.879)" fill="#c0b382"/>
        <circle id="Ellipse_29" data-name="Ellipse 29" cx="0.875" cy="0.875" r="0.875" transform="translate(61.17 126.116)" fill="#c0b382"/>
        <circle id="Ellipse_30" data-name="Ellipse 30" cx="0.875" cy="0.875" r="0.875" transform="translate(70.992 127.859)" fill="#c0b382"/>
        <circle id="Ellipse_31" data-name="Ellipse 31" cx="0.875" cy="0.875" r="0.875" transform="translate(80.684 126.116)" fill="#c0b382"/>
        <circle id="Ellipse_32" data-name="Ellipse 32" cx="0.875" cy="0.875" r="0.875" transform="translate(85.263 121.008)" fill="#c0b382"/>
        <circle id="Ellipse_33" data-name="Ellipse 33" cx="0.875" cy="0.875" r="0.875" transform="translate(88.016 120.82)" fill="#c0b382"/>
        <circle id="Ellipse_34" data-name="Ellipse 34" cx="0.875" cy="0.875" r="0.875" transform="translate(91.844 116.647)" fill="#c0b382"/>
        <circle id="Ellipse_35" data-name="Ellipse 35" cx="0.875" cy="0.875" r="0.875" transform="translate(91.844 108.087)" fill="#c0b382"/>
        <circle id="Ellipse_36" data-name="Ellipse 36" cx="0.875" cy="0.875" r="0.875" transform="translate(57.842 103.338)" fill="#c0b382"/>
        <circle id="Ellipse_37" data-name="Ellipse 37" cx="0.875" cy="0.875" r="0.875" transform="translate(70.992 105.604)" fill="#c0b382"/>
        <circle id="Ellipse_38" data-name="Ellipse 38" cx="0.875" cy="0.875" r="0.875" transform="translate(79.34 121.008)" fill="#c0b382"/>
        <circle id="Ellipse_39" data-name="Ellipse 39" cx="0.875" cy="0.875" r="0.875" transform="translate(62.615 121.008)" fill="#c0b382"/>
        <circle id="Ellipse_40" data-name="Ellipse 40" cx="0.875" cy="0.875" r="0.875" transform="translate(70.88 118.56)" fill="#c0b382"/>
        <circle id="Ellipse_41" data-name="Ellipse 41" cx="0.875" cy="0.875" r="0.875" transform="translate(55.488 107.712)" fill="#c0b382"/>
        <circle id="Ellipse_42" data-name="Ellipse 42" cx="0.875" cy="0.875" r="0.875" transform="translate(86.525 107.712)" fill="#c0b382"/>
        <circle id="Ellipse_43" data-name="Ellipse 43" cx="0.875" cy="0.875" r="0.875" transform="translate(54.296 112.097)" fill="#c0b382"/>
        <circle id="Ellipse_44" data-name="Ellipse 44" cx="0.875" cy="0.875" r="0.875" transform="translate(87.717 112.097)" fill="#c0b382"/>
        <circle id="Ellipse_45" data-name="Ellipse 45" cx="0.875" cy="0.875" r="0.875" transform="translate(58.012 115.185)" fill="#c0b382"/>
        <circle id="Ellipse_46" data-name="Ellipse 46" cx="0.875" cy="0.875" r="0.875" transform="translate(84.106 115.185)" fill="#c0b382"/>
        <circle id="Ellipse_47" data-name="Ellipse 47" cx="0.875" cy="0.875" r="0.875" transform="translate(59.585 109.837)" fill="#c0b382"/>
        <circle id="Ellipse_48" data-name="Ellipse 48" cx="0.875" cy="0.875" r="0.875" transform="translate(82.427 109.837)" fill="#c0b382"/>
        <circle id="Ellipse_49" data-name="Ellipse 49" cx="0.875" cy="0.875" r="0.875" transform="translate(61.17 113.435)" fill="#c0b382"/>
        <circle id="Ellipse_50" data-name="Ellipse 50" cx="0.875" cy="0.875" r="0.875" transform="translate(80.684 113.435)" fill="#c0b382"/>
        <circle id="Ellipse_51" data-name="Ellipse 51" cx="0.875" cy="0.875" r="0.875" transform="translate(70.927 123.568)" fill="#c0b382"/>
        <circle id="Ellipse_52" data-name="Ellipse 52" cx="0.875" cy="0.875" r="0.875" transform="translate(83.913 103.338)" fill="#c0b382"/>
        <circle id="Ellipse_53" data-name="Ellipse 53" cx="0.875" cy="0.875" r="0.875" transform="translate(50.099 107.829)" fill="#c0b382"/>
        <circle id="Ellipse_54" data-name="Ellipse 54" cx="0.875" cy="0.875" r="0.875" transform="translate(63.448 86.296)" fill="#c0b382"/>
        <circle id="Ellipse_55" data-name="Ellipse 55" cx="0.875" cy="0.875" r="0.875" transform="translate(44.545 45.408)" fill="#c0b382"/>
        <circle id="Ellipse_56" data-name="Ellipse 56" cx="0.875" cy="0.875" r="0.875" transform="translate(97.209 45.408)" fill="#c0b382"/>
        <circle id="Ellipse_57" data-name="Ellipse 57" cx="0.875" cy="0.875" r="0.875" transform="translate(6.716 61.352)" fill="#c0b382"/>
        <circle id="Ellipse_58" data-name="Ellipse 58" cx="0.875" cy="0.875" r="0.875" transform="translate(19.742 71.332)" fill="#c0b382"/>
        <circle id="Ellipse_59" data-name="Ellipse 59" cx="0.875" cy="0.875" r="0.875" transform="translate(37.266 68.966)" fill="#c0b382"/>
        <circle id="Ellipse_60" data-name="Ellipse 60" cx="0.875" cy="0.875" r="0.875" transform="translate(12.921 24.568)" fill="#c0b382"/>
        <circle id="Ellipse_61" data-name="Ellipse 61" cx="0.875" cy="0.875" r="0.875" transform="translate(24.057 36.919)" fill="#c0b382"/>
        <circle id="Ellipse_62" data-name="Ellipse 62" cx="0.875" cy="0.875" r="0.875" transform="translate(47.709 38.293)" fill="#c0b382"/>
        <circle id="Ellipse_63" data-name="Ellipse 63" cx="0.875" cy="0.875" r="0.875" transform="translate(94.11 38.293)" fill="#c0b382"/>
        <circle id="Ellipse_64" data-name="Ellipse 64" cx="0.875" cy="0.875" r="0.875" transform="translate(70.992 42.379)" fill="#c0b382"/>
        <circle id="Ellipse_65" data-name="Ellipse 65" cx="0.875" cy="0.875" r="0.875" transform="translate(117.897 37.019)" fill="#c0b382"/>
        <circle id="Ellipse_66" data-name="Ellipse 66" cx="0.875" cy="0.875" r="0.875" transform="translate(128.886 24.58)" fill="#c0b382"/>
        <circle id="Ellipse_67" data-name="Ellipse 67" cx="0.875" cy="0.875" r="0.875" transform="translate(129.52)" fill="#c0b382"/>
        <circle id="Ellipse_68" data-name="Ellipse 68" cx="0.875" cy="0.875" r="0.875" transform="translate(141.954 25.66)" fill="#c0b382"/>
      </g>
      <g id="Group_2" data-name="Group 2" transform="translate(224.626 378.605)">
        <path id="Path_23" data-name="Path 23" d="M291.571,552.136l-14.2-19.6h18.809l13.514,18.022,4.585-6.252.352.258L309.7,551.29l-13.737-18.316H278.215l13.7,18.909Z" transform="translate(-276.167 -531.519)" fill="#c0b382"/>
        <path id="Path_24" data-name="Path 24" d="M356.884,554.948l-.346-.258,15.968-21.715H353.25v-.434h20.106Z" transform="translate(-307.501 -531.519)" fill="#c0b382"/>
        <path id="Path_25" data-name="Path 25" d="M356.568,597.649l-18.7-24.568,12.745-17.541.352.252L338.41,573.075l18.5,24.31Z" transform="translate(-301.15 -541.016)" fill="#c0b382"/>
        <path id="Path_26" data-name="Path 26" d="M326.46,562.852l-8.5-11.042.341-.264,8.154,10.59,15.792-21.486h6.27v.434h-6.052Z" transform="translate(-292.928 -534.868)" fill="#c0b382"/>
        <path id="Path_27" data-name="Path 27" d="M298.387,592.774H291.9l19.631-25.959L292.452,540.65h5.507v.434H293.3l18.768,25.736-.094.129-19.208,25.39h5.413l9.886-12.246.335.27Z" transform="translate(-282.167 -534.868)" fill="#c0b382"/>
        <path id="Path_28" data-name="Path 28" d="M294.569,619.925H275.32l18.973-24.785.346.258-18.445,24.092h18.163l14.494-18.627,8.277,10.931-.346.258-7.937-10.479Z" transform="translate(-275.32 -557.369)" fill="#c0b382"/>
        <path id="Path_29" data-name="Path 29" d="M372.455,616.576H353.74v-.434h17.835L349.46,587.294l.341-.264Z" transform="translate(-305.936 -554.02)" fill="#c0b382"/>
        <rect id="Rectangle_9" data-name="Rectangle 9" width="0.434" height="12.123" transform="matrix(0.795, -0.607, 0.607, 0.795, 34.121, 37.339)" fill="#c0b382"/>
        <circle id="Ellipse_69" data-name="Ellipse 69" cx="1.239" cy="1.239" r="1.239" transform="translate(14.5 4.761)" fill="#c0b382"/>
        <circle id="Ellipse_70" data-name="Ellipse 70" cx="1.239" cy="1.239" r="1.239" transform="translate(37.049 11.706)" fill="#c0b382"/>
        <circle id="Ellipse_71" data-name="Ellipse 71" cx="1.239" cy="1.239" r="1.239" transform="translate(44.51)" fill="#c0b382"/>
        <circle id="Ellipse_72" data-name="Ellipse 72" cx="1.239" cy="1.239" r="1.239" transform="translate(54.349 4.761)" fill="#c0b382"/>
        <circle id="Ellipse_73" data-name="Ellipse 73" cx="1.239" cy="1.239" r="1.239" transform="translate(48.484 13.408)" fill="#c0b382"/>
        <circle id="Ellipse_74" data-name="Ellipse 74" cx="1.239" cy="1.239" r="1.239" transform="translate(47.997 22.061)" fill="#c0b382"/>
        <circle id="Ellipse_75" data-name="Ellipse 75" cx="1.239" cy="1.239" r="1.239" transform="translate(42.455 31.9)" fill="#c0b382"/>
        <circle id="Ellipse_76" data-name="Ellipse 76" cx="1.239" cy="1.239" r="1.239" transform="translate(33.045 35.998)" fill="#c0b382"/>
        <circle id="Ellipse_77" data-name="Ellipse 77" cx="1.239" cy="1.239" r="1.239" transform="translate(40.401 45.637)" fill="#c0b382"/>
        <circle id="Ellipse_78" data-name="Ellipse 78" cx="1.239" cy="1.239" r="1.239" transform="translate(54.349 55.259)" fill="#c0b382"/>
        <circle id="Ellipse_79" data-name="Ellipse 79" cx="1.239" cy="1.239" r="1.239" transform="translate(46.565 61.1)" fill="#c0b382"/>
        <circle id="Ellipse_80" data-name="Ellipse 80" cx="1.239" cy="1.239" r="1.239" transform="translate(40.401 53.339)" fill="#c0b382"/>
        <circle id="Ellipse_81" data-name="Ellipse 81" cx="1.239" cy="1.239" r="1.239" transform="translate(24.908 44.04)" fill="#c0b382"/>
        <circle id="Ellipse_82" data-name="Ellipse 82" cx="1.239" cy="1.239" r="1.239" transform="translate(17.934 36.661)" fill="#c0b382"/>
        <circle id="Ellipse_83" data-name="Ellipse 83" cx="1.239" cy="1.239" r="1.239" transform="translate(23.963 15.574)" fill="#c0b382"/>
        <circle id="Ellipse_84" data-name="Ellipse 84" cx="1.239" cy="1.239" r="1.239" transform="translate(14.365 19.249)" fill="#c0b382"/>
      </g>
      <text id="CORRETORA" transform="translate(199.636 466.466)" fill="#c0b382" font-size="13" font-family="Helvetica" letter-spacing="0.18em"><tspan x="0" y="0">C</tspan><tspan y="0" letter-spacing="0.2em">ORR</tspan><tspan y="0" letter-spacing="0.22em">E</tspan><tspan y="0" letter-spacing="0.17em">T</tspan><tspan y="0" letter-spacing="0.2em">ORA</tspan></text>
    </g>
  </g>
</svg>
