<?xml version="1.0" encoding="utf-8"?>
<!-- Generator: Adobe Illustrator 27.7.0, SVG Export Plug-In . SVG Version: 6.00 Build 0)  -->
<svg version="1.1" id="Layer_1" xmlns="http://www.w3.org/2000/svg" xmlns:xlink="http://www.w3.org/1999/xlink" x="0px" y="0px"
	 viewBox="0 0 595.28 841.89" enable-background="new 0 0 595.28 841.89" xml:space="preserve">
<path fill="#293288" d="M341.56,403.08l0.02-0.01l0.7-16.3l-25.36,18.26l12.06,5c0.09-0.05,0.19-0.09,0.29-0.13
	c0.14-0.04,0.29-0.07,0.45-0.07c0.15,0,0.29,0.02,0.42,0.06c0.09,0.03,0.17,0.06,0.25,0.1l10.69-6.22c0.03-0.1,0.07-0.19,0.12-0.28
	c0.07-0.12,0.15-0.23,0.25-0.33L341.56,403.08z M343.85,403.62c0.05,0.12,0.09,0.24,0.12,0.38l5.61,3.36l-0.84-7.58l-0.1-0.09
	c-0.14-0.14-0.25-0.3-0.32-0.48c-0.07-0.18-0.11-0.37-0.11-0.57c0-0.09,0.01-0.18,0.03-0.28c0.01-0.06,0.02-0.11,0.04-0.16
	l-4.17-9.24l-0.46,14.15l-0.02,0.15C343.71,403.36,343.79,403.49,343.85,403.62z M343.33,405.81l-0.62,5.75l5.95-2.56L343.33,405.81
	z M348.72,420.55l0.03-0.02l0.89-9.9l-6.71,2.88l-0.08,0.13c-0.05,0.07-0.11,0.14-0.17,0.2c-0.14,0.14-0.3,0.25-0.48,0.32
	c-0.18,0.07-0.37,0.11-0.57,0.11c-0.08,0-0.16-0.01-0.24-0.02l-0.14-0.03l-4.99,2.15l12.41,4.2L348.72,420.55z M348.08,422.48
	l-0.05-0.13l-13.01-4.4l5.32,19.1l7.8-14.47L348.08,422.48z M325.48,427.08c-0.05,0.12-0.11,0.24-0.18,0.34l5.11,15.19
	c0.18,0.08,0.34,0.18,0.47,0.32c0.12,0.12,0.21,0.25,0.29,0.41c0.05,0.11,0.09,0.23,0.12,0.35l5,3.04l-3.35-28.09l-7.36,7.98
	C325.57,426.77,325.54,426.93,325.48,427.08z M338.74,439.81c-0.07-0.17-0.1-0.35-0.1-0.54c0-0.14,0.02-0.28,0.06-0.41
	c0.03-0.1,0.07-0.19,0.11-0.28l-2.76-9.92l1.9,15.84l1-4.32C338.86,440.07,338.79,439.95,338.74,439.81z M333.62,448.99
	c-0.05,0.13-0.11,0.24-0.19,0.35l0.59,2.22c0.07,0.03,0.13,0.06,0.2,0.1c0.1,0.06,0.2,0.14,0.28,0.22c0.14,0.14,0.25,0.3,0.32,0.48
	c0.07,0.18,0.11,0.37,0.11,0.57c0,0.2-0.04,0.39-0.11,0.57c-0.08,0.18-0.19,0.35-0.33,0.48c-0.14,0.14-0.3,0.25-0.48,0.32
	c-0.18,0.07-0.37,0.11-0.57,0.11l-0.18-0.01l-2.14,1.91c-0.02,0.14-0.06,0.27-0.12,0.4c-0.07,0.16-0.18,0.31-0.3,0.43
	c-0.14,0.14-0.3,0.25-0.48,0.32c-0.18,0.07-0.37,0.11-0.57,0.11c-0.2,0-0.39-0.04-0.57-0.11c-0.18-0.08-0.35-0.19-0.48-0.32
	c-0.1-0.1-0.19-0.22-0.26-0.36c-0.05-0.09-0.09-0.2-0.12-0.3l-1.36-0.76c-0.05,0.02-0.1,0.03-0.15,0.04
	c-0.09,0.02-0.19,0.03-0.28,0.03c-0.19,0-0.38-0.04-0.55-0.11c-0.18-0.07-0.34-0.17-0.47-0.3l-0.03-0.03
	c-0.14-0.14-0.25-0.3-0.32-0.49c-0.07-0.18-0.11-0.37-0.11-0.57c0-0.2,0.04-0.39,0.11-0.57c0.08-0.18,0.19-0.35,0.32-0.48
	c0.1-0.1,0.2-0.18,0.32-0.24c0.08-0.05,0.17-0.09,0.26-0.12l0.77-1.6c-0.04-0.08-0.08-0.17-0.1-0.26c-0.04-0.13-0.06-0.27-0.06-0.42
	c0-0.2,0.04-0.39,0.11-0.57c0.08-0.18,0.19-0.35,0.33-0.48c0.14-0.14,0.3-0.25,0.48-0.32c0.18-0.07,0.37-0.11,0.57-0.11
	c0.11,0,0.23,0.01,0.34,0.04c0.07,0.02,0.14,0.04,0.2,0.06l2.2-1.11c0.02-0.11,0.06-0.21,0.11-0.31c0.07-0.14,0.16-0.27,0.26-0.38
	l0.03-0.03c0.14-0.14,0.3-0.25,0.48-0.32c0.18-0.07,0.37-0.11,0.57-0.11c0.41,0,0.79,0.17,1.06,0.44c0.14,0.14,0.25,0.3,0.32,0.49
	c0.07,0.18,0.11,0.37,0.11,0.57C333.72,448.65,333.69,448.83,333.62,448.99z M332.21,452.1l-0.6-2.28l-2.1,1.06
	c-0.02,0.13-0.06,0.25-0.11,0.37c-0.08,0.17-0.18,0.31-0.3,0.44c-0.11,0.11-0.23,0.2-0.36,0.27c-0.09,0.05-0.19,0.09-0.3,0.12
	l-0.72,1.5c0.05,0.09,0.1,0.19,0.13,0.29c0.03,0.1,0.06,0.21,0.07,0.32l1.07,0.6c0.08-0.04,0.17-0.08,0.25-0.1
	c0.13-0.04,0.28-0.06,0.42-0.06c0.11,0,0.22,0.01,0.33,0.04c0.05,0.01,0.1,0.03,0.15,0.04l1.83-1.63l0-0.12
	c0-0.18,0.03-0.35,0.09-0.5C332.08,452.32,332.14,452.21,332.21,452.1z M352.82,408.46l14.76,1.88l-2.54-13.45L352.82,408.46z
	 M366.89,396.49l2.5,13.26l10.76-8.35L366.89,396.49z M365.11,377.34c-0.09,0.05-0.18,0.09-0.28,0.12l-13.16,19.88l12.58-2.96
	c0.03-0.06,0.05-0.12,0.09-0.18c0.06-0.1,0.13-0.19,0.2-0.27l0.03-0.03c0.14-0.14,0.3-0.25,0.49-0.32c0.18-0.07,0.37-0.11,0.57-0.11
	c0.12,0,0.23,0.01,0.34,0.04c0.06,0.02,0.13,0.04,0.19,0.06l16.25-10.46c0.01-0.14,0.05-0.28,0.1-0.41c0.07-0.17,0.17-0.33,0.3-0.47
	l0.02-0.03c0.09-0.09,0.2-0.17,0.32-0.24c0.07-0.04,0.15-0.08,0.23-0.11l4.43-16.32c-0.09-0.11-0.17-0.24-0.22-0.38
	c-0.07-0.18-0.11-0.37-0.11-0.57c0-0.15,0.02-0.29,0.06-0.43c0.03-0.09,0.06-0.18,0.11-0.26l-10.28-21.03l-0.55,19.5
	c0.13,0.14,0.24,0.3,0.31,0.47c0.07,0.18,0.11,0.37,0.11,0.57c0,0.2-0.04,0.39-0.11,0.57c-0.08,0.18-0.19,0.35-0.33,0.49
	c-0.14,0.14-0.3,0.25-0.48,0.32c-0.15,0.06-0.32,0.1-0.5,0.11l-9.97,11.2c-0.01,0.18-0.05,0.36-0.11,0.52
	c-0.08,0.18-0.19,0.35-0.32,0.49C365.34,377.19,365.23,377.28,365.11,377.34z M341.39,378.33l-0.02,0.02l2.21,4.9
	c0.14,0.02,0.28,0.05,0.4,0.1c0.18,0.08,0.35,0.19,0.48,0.32c0.14,0.14,0.25,0.3,0.32,0.48c0.07,0.18,0.11,0.37,0.11,0.57
	c0,0.18-0.03,0.36-0.1,0.53c-0.04,0.12-0.1,0.23-0.17,0.33l5.1,11.28l13.06-19.73L341.39,378.33z M331.05,411.99l2.17,3.05
	l0.13-0.04c0.11-0.03,0.23-0.04,0.35-0.04c0.15,0,0.29,0.02,0.43,0.06c0.09,0.03,0.19,0.07,0.27,0.11l5.76-2.47
	c0.01-0.15,0.05-0.29,0.1-0.42c0.07-0.18,0.17-0.34,0.3-0.47l0.03-0.03c0.05-0.05,0.11-0.1,0.17-0.14l0.07-0.05l0.63-5.81
	l-10.32,6.06l-0.05,0.13L331.05,411.99z M329.87,413.6l-3.49,9.35l5.73-6.21L329.87,413.6z M316.28,406.78l7.56,17.73l4.62-12.36
	c-0.03-0.05-0.06-0.1-0.09-0.16c-0.03-0.06-0.05-0.12-0.07-0.18L316.28,406.78z M351.46,407.16l11.01-10.41l-11.53,2.72l-0.05,0.07
	c-0.04,0.06-0.09,0.11-0.13,0.15l-0.11,0.1L351.46,407.16z M287.14,403.07l0.02,0.01c0.04,0.04,0.08,0.07,0.12,0.1
	c0.09,0.09,0.18,0.21,0.25,0.33c0.05,0.09,0.09,0.18,0.12,0.28l10.69,6.22c0.08-0.04,0.17-0.08,0.25-0.1
	c0.14-0.04,0.28-0.06,0.43-0.06c0.15,0,0.3,0.02,0.45,0.07c0.1,0.03,0.2,0.07,0.29,0.13l12.06-5l-25.36-18.26L287.14,403.07z
	 M284.75,404c0.02-0.13,0.06-0.26,0.12-0.38c0.06-0.13,0.14-0.26,0.24-0.37l-0.02-0.15l-0.46-14.15l-4.17,9.24
	c0.02,0.05,0.03,0.11,0.04,0.16c0.02,0.09,0.03,0.18,0.03,0.28c0,0.2-0.04,0.39-0.11,0.57c-0.08,0.18-0.19,0.35-0.32,0.48l-0.1,0.09
	l-0.84,7.58L284.75,404z M286,411.56l-0.62-5.75l-5.33,3.2L286,411.56z M279.96,420.53l0.09,0.05l12.41-4.2l-4.99-2.15l-0.14,0.03
	c-0.08,0.01-0.16,0.02-0.24,0.02c-0.2,0-0.39-0.04-0.57-0.11c-0.18-0.08-0.35-0.19-0.48-0.32c-0.06-0.06-0.12-0.13-0.17-0.2
	l-0.08-0.13l-6.71-2.88L279.96,420.53z M280.69,422.35l-0.05,0.13l-0.05,0.11l7.8,14.47l5.32-19.1L280.69,422.35z M303.42,427.42
	c-0.08-0.11-0.14-0.22-0.18-0.34c-0.06-0.15-0.09-0.31-0.1-0.47l-7.36-7.98l-3.35,28.09l5-3.04c0.03-0.12,0.07-0.24,0.12-0.35
	c0.07-0.15,0.17-0.29,0.29-0.41c0.13-0.13,0.29-0.24,0.47-0.32L303.42,427.42z M290.08,439.27c0,0.19-0.04,0.38-0.1,0.54
	c-0.05,0.13-0.12,0.26-0.21,0.37l1,4.32l1.9-15.84l-2.76,9.92c0.05,0.09,0.08,0.18,0.11,0.28
	C290.06,438.99,290.08,439.13,290.08,439.27z M295.29,449.34c-0.08-0.11-0.14-0.23-0.19-0.35c-0.06-0.17-0.1-0.34-0.1-0.53
	c0-0.2,0.04-0.39,0.11-0.57c0.08-0.18,0.19-0.35,0.32-0.49c0.27-0.27,0.64-0.44,1.06-0.44c0.2,0,0.39,0.04,0.57,0.11
	c0.18,0.08,0.35,0.19,0.48,0.32l0.03,0.03c0.1,0.11,0.19,0.24,0.26,0.38c0.05,0.1,0.08,0.2,0.11,0.31l2.2,1.11
	c0.06-0.03,0.13-0.05,0.2-0.06c0.11-0.02,0.22-0.04,0.34-0.04c0.2,0,0.39,0.04,0.57,0.11c0.18,0.08,0.35,0.19,0.48,0.32
	c0.14,0.14,0.25,0.3,0.33,0.48c0.07,0.18,0.11,0.37,0.11,0.57c0,0.14-0.02,0.28-0.06,0.42c-0.03,0.09-0.06,0.18-0.1,0.26l0.77,1.6
	c0.09,0.03,0.17,0.07,0.25,0.12c0.12,0.07,0.22,0.15,0.32,0.24c0.14,0.14,0.25,0.3,0.32,0.48c0.07,0.18,0.11,0.37,0.11,0.57
	c0,0.2-0.04,0.39-0.11,0.57c-0.08,0.18-0.19,0.35-0.32,0.49l-0.03,0.03c-0.14,0.13-0.3,0.23-0.47,0.3
	c-0.17,0.07-0.36,0.11-0.55,0.11c-0.09,0-0.19-0.01-0.28-0.03l-0.15-0.04l-1.36,0.76c-0.03,0.1-0.07,0.2-0.12,0.3
	c-0.07,0.13-0.16,0.25-0.26,0.36c-0.14,0.14-0.3,0.25-0.49,0.32c-0.18,0.07-0.37,0.11-0.57,0.11c-0.2,0-0.39-0.04-0.57-0.11
	c-0.18-0.08-0.35-0.19-0.49-0.32c-0.12-0.12-0.22-0.27-0.3-0.43c-0.06-0.13-0.1-0.26-0.12-0.4l-2.14-1.91l-0.18,0.01
	c-0.2,0-0.39-0.04-0.57-0.11c-0.18-0.08-0.35-0.19-0.48-0.32c-0.14-0.14-0.25-0.3-0.33-0.48c-0.07-0.18-0.11-0.37-0.11-0.57
	c0-0.2,0.04-0.39,0.11-0.57c0.08-0.18,0.19-0.35,0.32-0.49c0.08-0.08,0.18-0.16,0.28-0.22c0.06-0.04,0.13-0.07,0.2-0.1
	L295.29,449.34z M297.11,449.82l-0.6,2.28c0.07,0.1,0.13,0.22,0.17,0.34c0.06,0.16,0.09,0.33,0.09,0.5l0,0.12l1.83,1.63
	c0.05-0.02,0.1-0.03,0.15-0.04c0.11-0.02,0.22-0.04,0.33-0.04c0.14,0,0.29,0.02,0.42,0.06c0.09,0.03,0.17,0.06,0.25,0.1l1.07-0.6
	c0.01-0.11,0.03-0.22,0.07-0.32c0.03-0.1,0.08-0.2,0.13-0.29l-0.72-1.5c-0.1-0.03-0.2-0.07-0.3-0.12c-0.14-0.07-0.26-0.16-0.36-0.27
	c-0.12-0.12-0.23-0.27-0.3-0.44c-0.05-0.12-0.09-0.24-0.11-0.37L297.11,449.82z M261.13,410.34l14.76-1.88l-12.22-11.57
	L261.13,410.34z M259.33,409.75l2.5-13.26l-13.26,4.92L259.33,409.75z M263.88,377.46c-0.1-0.03-0.19-0.07-0.28-0.12
	c-0.12-0.07-0.23-0.15-0.32-0.24c-0.14-0.14-0.25-0.3-0.32-0.49c-0.07-0.16-0.11-0.34-0.11-0.52l-9.97-11.2
	c-0.17-0.01-0.34-0.05-0.5-0.11c-0.18-0.08-0.35-0.19-0.48-0.32c-0.14-0.14-0.25-0.3-0.33-0.49c-0.07-0.18-0.11-0.37-0.11-0.57
	c0-0.2,0.04-0.39,0.11-0.57c0.07-0.18,0.18-0.34,0.31-0.47l-0.55-19.5l-10.28,21.03c0.04,0.08,0.08,0.17,0.11,0.26
	c0.04,0.14,0.06,0.28,0.06,0.43c0,0.2-0.04,0.39-0.11,0.57c-0.06,0.14-0.13,0.26-0.22,0.38l4.43,16.32
	c0.08,0.03,0.16,0.06,0.23,0.11c0.12,0.07,0.23,0.15,0.32,0.24l0.02,0.03c0.13,0.14,0.23,0.29,0.3,0.47
	c0.05,0.13,0.09,0.26,0.1,0.41l16.25,10.46c0.06-0.02,0.13-0.04,0.19-0.06c0.11-0.03,0.23-0.04,0.34-0.04c0.2,0,0.39,0.04,0.57,0.11
	c0.18,0.08,0.35,0.19,0.49,0.32l0.03,0.03c0.08,0.08,0.15,0.17,0.2,0.27c0.03,0.06,0.06,0.12,0.09,0.18l12.58,2.96L263.88,377.46z
	 M287.34,378.35l-0.02-0.02l-21.4-1.19l13.06,19.73l5.1-11.28c-0.07-0.1-0.13-0.21-0.17-0.33c-0.06-0.16-0.1-0.34-0.1-0.53
	c0-0.2,0.04-0.39,0.11-0.57c0.08-0.18,0.19-0.35,0.32-0.48c0.14-0.14,0.3-0.25,0.48-0.33c0.13-0.05,0.26-0.09,0.4-0.1L287.34,378.35
	z M295.5,415.04l2.17-3.05l-0.03-0.07l-0.05-0.13l-10.32-6.06l0.63,5.81l0.07,0.05c0.06,0.05,0.12,0.1,0.17,0.15l0.03,0.03
	c0.13,0.14,0.23,0.3,0.3,0.47c0.05,0.13,0.09,0.27,0.1,0.42l5.76,2.47c0.09-0.04,0.18-0.08,0.27-0.11c0.14-0.04,0.28-0.06,0.43-0.06
	c0.12,0,0.24,0.01,0.35,0.04L295.5,415.04z M302.34,422.95l-3.49-9.35l-2.24,3.14L302.34,422.95z M304.88,424.51l7.56-17.73
	l-12.01,5.03c-0.02,0.06-0.05,0.12-0.07,0.18c-0.03,0.05-0.06,0.11-0.09,0.16L304.88,424.51z M314.61,460.65v0.02h-0.5v-0.02
	c-0.11-0.02-0.22-0.05-0.32-0.09c-0.14-0.06-0.27-0.14-0.38-0.23l-6.4,1.53l6.31,1.74c0.13-0.13,0.3-0.24,0.47-0.31
	c0.1-0.04,0.21-0.07,0.32-0.09v-0.02h0.5v0.02c0.11,0.02,0.22,0.05,0.32,0.09c0.18,0.07,0.34,0.18,0.47,0.31l6.31-1.74l-6.4-1.53
	c-0.12,0.1-0.24,0.18-0.39,0.23C314.83,460.6,314.72,460.63,314.61,460.65z M314.36,448.16l-8.12,11.93l6.81-1.63l0.08-0.13
	c0.05-0.08,0.11-0.15,0.18-0.21l0.03-0.03c0.14-0.13,0.3-0.23,0.47-0.3c0.1-0.04,0.2-0.07,0.3-0.09v-0.02h0.5v0.02
	c0.1,0.02,0.21,0.05,0.3,0.09c0.18,0.07,0.34,0.17,0.47,0.3l0.03,0.03c0.06,0.06,0.12,0.13,0.18,0.21l0.08,0.13l6.81,1.63
	L314.36,448.16z M314.36,406.97l-8.25,19.36l0.01,0.07l0.01,0.16c0,0.2-0.04,0.39-0.11,0.57c-0.08,0.18-0.19,0.35-0.32,0.49
	c-0.08,0.08-0.17,0.15-0.26,0.21c-0.06,0.04-0.12,0.07-0.19,0.1l-5.12,15.22l0.02,0.04l13.38,2.17c0.11-0.07,0.22-0.13,0.34-0.17
	c0.08-0.03,0.16-0.05,0.24-0.06v-0.02h0.5v0.02c0.08,0.01,0.16,0.03,0.24,0.06c0.12,0.04,0.24,0.1,0.34,0.17l13.38-2.17l0.02-0.04
	l-5.12-15.22c-0.06-0.03-0.13-0.06-0.19-0.1c-0.1-0.06-0.19-0.13-0.26-0.21c-0.14-0.14-0.25-0.3-0.32-0.49
	c-0.07-0.18-0.11-0.37-0.11-0.57l0.01-0.16l0.01-0.07L314.36,406.97z M314.61,383.1v0.02h-0.5v-0.02c-0.11-0.02-0.22-0.05-0.32-0.09
	c-0.18-0.08-0.35-0.19-0.48-0.32l-0.03-0.03c-0.06-0.07-0.12-0.14-0.17-0.22l-0.07-0.12l-23.48-3.78c-0.06,0.05-0.12,0.1-0.18,0.14
	c-0.05,0.03-0.1,0.06-0.15,0.09l-2.49,5.52c0.02,0.05,0.03,0.11,0.04,0.16c0.01,0.07,0.02,0.14,0.02,0.2l26.66,19.27
	c0.11-0.08,0.23-0.15,0.36-0.21c0.1-0.04,0.2-0.07,0.3-0.09v-0.02h0.5v0.02c0.1,0.02,0.21,0.05,0.3,0.09
	c0.13,0.05,0.25,0.12,0.36,0.21l26.66-19.27c0-0.07,0.01-0.14,0.02-0.2c0.01-0.05,0.02-0.11,0.04-0.16l-2.49-5.52
	c-0.05-0.03-0.1-0.06-0.15-0.09c-0.07-0.05-0.13-0.09-0.18-0.14l-23.48,3.78l-0.07,0.12c-0.05,0.08-0.11,0.15-0.17,0.22l-0.03,0.03
	c-0.14,0.14-0.3,0.25-0.49,0.32C314.83,383.05,314.72,383.08,314.61,383.1z M314.61,470.88v0.02h-0.5v-0.02
	c-0.11-0.02-0.22-0.05-0.32-0.09c-0.18-0.08-0.35-0.19-0.48-0.32l-0.02-0.03c-0.05-0.05-0.1-0.11-0.14-0.17l-0.05-0.07l-9.88-1.73
	c-0.11,0.09-0.24,0.16-0.37,0.21c-0.17,0.07-0.35,0.1-0.54,0.1c-0.2,0-0.39-0.04-0.57-0.11c-0.18-0.08-0.35-0.19-0.49-0.32
	l-0.03-0.03c-0.13-0.14-0.23-0.3-0.3-0.47c-0.07-0.17-0.11-0.36-0.11-0.55l0.01-0.13l-3.18-3.73c-0.17-0.01-0.34-0.05-0.5-0.11
	c-0.18-0.08-0.35-0.19-0.48-0.32l-0.09-0.1c-0.42,0-0.39-0.1-0.64,0.13c-0.14,0.13-0.3,0.23-0.47,0.3
	c-0.17,0.07-0.36,0.11-0.55,0.11c-0.2,0-0.39-0.04-0.57-0.11c-0.18-0.08-0.35-0.19-0.48-0.32l-0.03-0.03
	c-0.13-0.14-0.23-0.3-0.3-0.47c-0.07-0.17-0.11-0.36-0.11-0.55l0.01-0.18l-2.52-2.81c-0.17-0.01-0.34-0.05-0.5-0.11
	c-0.18-0.08-0.35-0.19-0.49-0.32l-0.03-0.03c-0.13-0.14-0.23-0.3-0.3-0.47c-0.07-0.17-0.11-0.36-0.11-0.55
	c0-0.2,0.04-0.39,0.11-0.57c0.07-0.18,0.18-0.33,0.3-0.47l0-6.8c-0.13-0.13-0.23-0.29-0.3-0.46c-0.07-0.18-0.11-0.37-0.11-0.57
	c0-0.16,0.03-0.32,0.07-0.46c0.04-0.11,0.09-0.22,0.15-0.32l-1.75-7.18c-0.06-0.03-0.11-0.06-0.17-0.09
	c-0.09-0.06-0.18-0.13-0.25-0.2c-0.14-0.14-0.25-0.3-0.33-0.48c-0.07-0.18-0.11-0.37-0.11-0.57c0-0.1,0.01-0.21,0.03-0.31
	c0.01-0.06,0.03-0.12,0.05-0.17l-8.36-15.51c-0.09-0.03-0.18-0.07-0.26-0.12c-0.12-0.07-0.23-0.15-0.32-0.24l-0.02-0.03
	c-0.13-0.14-0.23-0.3-0.31-0.48c-0.07-0.17-0.11-0.36-0.11-0.55c0-0.19,0.04-0.37,0.1-0.54c0.05-0.14,0.13-0.26,0.21-0.38
	l-0.95-10.56l-0.11-0.05c-0.05-0.03-0.1-0.06-0.15-0.1l-15.87,2.02l-0.05,0.05c-0.14,0.14-0.3,0.25-0.49,0.32
	c-0.18,0.07-0.37,0.11-0.57,0.11c-0.2,0-0.39-0.04-0.57-0.11c-0.18-0.08-0.35-0.19-0.49-0.32c-0.13-0.13-0.23-0.28-0.31-0.45
	c-0.06-0.13-0.1-0.27-0.12-0.41l-11.53-8.95l-0.09,0.02c-0.07,0.01-0.15,0.02-0.22,0.02c-0.2,0-0.39-0.04-0.57-0.11
	c-0.18-0.08-0.35-0.19-0.48-0.32l-0.03-0.03c-0.13-0.14-0.23-0.3-0.31-0.47c-0.07-0.17-0.11-0.36-0.11-0.55
	c0-0.2,0.04-0.39,0.11-0.57c0.08-0.18,0.19-0.35,0.32-0.48c0.14-0.14,0.3-0.25,0.49-0.32c0.18-0.07,0.37-0.11,0.57-0.11
	c0.18,0,0.35,0.03,0.52,0.09c0.12,0.04,0.23,0.1,0.33,0.17l13.53-5.01l-15.71-10.11c-0.05,0.02-0.1,0.03-0.15,0.04
	c-0.1,0.02-0.19,0.03-0.29,0.03c-0.2,0-0.39-0.04-0.57-0.11c-0.18-0.08-0.35-0.19-0.49-0.32l-0.03-0.03
	c-0.13-0.14-0.23-0.3-0.3-0.47c-0.07-0.17-0.11-0.36-0.11-0.55c0-0.16,0.03-0.31,0.07-0.46c0.04-0.11,0.08-0.21,0.14-0.31
	l-4.51-16.59l-0.14-0.08c-0.08-0.05-0.15-0.12-0.22-0.18l-0.02-0.03c-0.13-0.14-0.23-0.3-0.31-0.48c-0.07-0.17-0.11-0.36-0.11-0.55
	c0-0.2,0.04-0.39,0.11-0.57c0.08-0.18,0.19-0.35,0.32-0.48c0.1-0.1,0.22-0.19,0.35-0.26c0.09-0.05,0.19-0.09,0.29-0.12
	c2.39-4.89,5.23-10.71,8.08-16.52l3.65-7.47c-0.04-0.08-0.08-0.17-0.1-0.26c-0.04-0.13-0.06-0.28-0.06-0.42
	c0-0.2,0.04-0.39,0.11-0.57c0.08-0.18,0.19-0.35,0.32-0.49c0.14-0.14,0.3-0.25,0.48-0.32c0.18-0.07,0.37-0.11,0.57-0.11
	c0.2,0,0.39,0.04,0.57,0.11c0.18,0.08,0.35,0.19,0.48,0.32c0.14,0.14,0.25,0.3,0.33,0.48c0.07,0.18,0.11,0.37,0.11,0.57
	c0,0.2-0.04,0.39-0.11,0.57c-0.08,0.18-0.19,0.35-0.32,0.48l-0.03,0.03c-0.06,0.06-0.13,0.11-0.2,0.16l-0.07,0.05l0.63,22.4
	l0.06,0.04c0.07,0.05,0.12,0.1,0.18,0.15c0.14,0.14,0.25,0.3,0.32,0.48c0.07,0.18,0.11,0.37,0.11,0.57c0,0.09-0.01,0.17-0.02,0.26
	l-0.02,0.1l9.63,10.82l0.07-0.01c0.08-0.01,0.16-0.02,0.24-0.02c0.2,0,0.39,0.04,0.57,0.11c0.18,0.08,0.35,0.19,0.48,0.32
	c0.05,0.05,0.1,0.11,0.15,0.17l0.05,0.06l21.85,1.22l0.05-0.05c0.14-0.14,0.3-0.25,0.48-0.32c0.18-0.07,0.37-0.11,0.57-0.11
	c0.2,0,0.39,0.04,0.57,0.11c0.18,0.08,0.35,0.19,0.48,0.32c0.06,0.06,0.11,0.12,0.16,0.19l0.06,0.09l23.62,3.78
	c0.11-0.09,0.24-0.17,0.38-0.22c0.1-0.04,0.2-0.07,0.3-0.09v-0.02h0.5v0.02c0.1,0.02,0.21,0.05,0.3,0.09
	c0.14,0.05,0.27,0.13,0.38,0.22l23.62-3.78l0.06-0.09c0.05-0.07,0.1-0.13,0.16-0.19c0.14-0.14,0.3-0.25,0.48-0.32
	c0.18-0.07,0.37-0.11,0.57-0.11c0.2,0,0.39,0.04,0.57,0.11c0.18,0.08,0.35,0.19,0.48,0.32l0.05,0.05l21.85-1.22l0.05-0.06
	c0.04-0.06,0.09-0.12,0.15-0.17c0.14-0.14,0.3-0.25,0.48-0.32c0.18-0.07,0.37-0.11,0.57-0.11c0.08,0,0.16,0.01,0.24,0.02l0.07,0.01
	l9.63-10.82l-0.02-0.1c-0.02-0.08-0.02-0.17-0.02-0.26c0-0.2,0.04-0.39,0.11-0.57c0.08-0.18,0.19-0.35,0.32-0.48
	c0.05-0.05,0.11-0.1,0.17-0.15l0.06-0.04l0.63-22.4l-0.07-0.05c-0.07-0.05-0.14-0.1-0.2-0.16l-0.03-0.03
	c-0.14-0.14-0.25-0.3-0.32-0.48c-0.07-0.18-0.11-0.37-0.11-0.57c0-0.2,0.04-0.39,0.11-0.57c0.08-0.18,0.19-0.35,0.32-0.48
	c0.14-0.14,0.3-0.25,0.48-0.33c0.18-0.07,0.37-0.11,0.57-0.11c0.2,0,0.39,0.04,0.57,0.11c0.18,0.08,0.35,0.19,0.49,0.32
	c0.14,0.14,0.25,0.3,0.32,0.48c0.07,0.18,0.11,0.37,0.11,0.57c0,0.14-0.02,0.29-0.06,0.42c-0.03,0.09-0.06,0.18-0.1,0.26l3.65,7.47
	c2.85,5.82,5.69,11.63,8.08,16.52c0.1,0.03,0.2,0.07,0.29,0.12c0.13,0.07,0.25,0.16,0.35,0.26c0.14,0.14,0.25,0.3,0.32,0.48
	c0.07,0.18,0.11,0.37,0.11,0.57c0,0.19-0.04,0.38-0.11,0.55c-0.07,0.18-0.18,0.34-0.31,0.48l-0.03,0.03
	c-0.07,0.07-0.14,0.13-0.22,0.18l-0.14,0.08l-4.51,16.59c0.06,0.1,0.11,0.2,0.14,0.31c0.05,0.15,0.07,0.3,0.07,0.46
	c0,0.19-0.04,0.38-0.11,0.55c-0.07,0.18-0.17,0.34-0.3,0.47l-0.03,0.03c-0.14,0.14-0.3,0.25-0.49,0.32
	c-0.18,0.07-0.37,0.11-0.57,0.11c-0.1,0-0.2-0.01-0.29-0.03c-0.05-0.01-0.1-0.02-0.15-0.04l-15.71,10.11l13.53,5.01
	c0.1-0.07,0.21-0.13,0.33-0.17c0.16-0.06,0.34-0.09,0.52-0.09c0.2,0,0.39,0.04,0.57,0.11c0.18,0.08,0.35,0.19,0.48,0.32
	c0.14,0.14,0.25,0.3,0.32,0.49c0.07,0.18,0.11,0.37,0.11,0.57c0,0.19-0.04,0.38-0.11,0.55c-0.07,0.18-0.18,0.34-0.31,0.47
	l-0.02,0.03c-0.14,0.14-0.3,0.25-0.49,0.32c-0.18,0.07-0.37,0.11-0.57,0.11c-0.07,0-0.15-0.01-0.22-0.02l-0.09-0.02l-11.53,8.95
	c-0.02,0.14-0.06,0.28-0.12,0.41c-0.08,0.17-0.18,0.32-0.31,0.45c-0.14,0.14-0.3,0.25-0.48,0.32c-0.18,0.07-0.37,0.11-0.57,0.11
	c-0.2,0-0.39-0.04-0.57-0.11c-0.18-0.08-0.35-0.19-0.49-0.32l-0.05-0.05l-15.87-2.02c-0.05,0.03-0.1,0.07-0.15,0.1l-0.11,0.05
	l-0.95,10.56c0.09,0.11,0.16,0.24,0.21,0.38c0.06,0.17,0.1,0.35,0.1,0.54c0,0.19-0.04,0.38-0.11,0.55
	c-0.07,0.18-0.18,0.34-0.31,0.48l-0.03,0.03c-0.09,0.09-0.2,0.18-0.32,0.24c-0.08,0.05-0.17,0.09-0.26,0.12l-8.36,15.51
	c0.02,0.06,0.04,0.12,0.05,0.17c0.02,0.1,0.03,0.2,0.03,0.31c0,0.2-0.04,0.39-0.11,0.57c-0.08,0.18-0.19,0.35-0.33,0.48
	c-0.08,0.08-0.16,0.15-0.25,0.2c-0.05,0.03-0.11,0.06-0.17,0.09l-1.75,7.18c0.06,0.1,0.11,0.21,0.15,0.32
	c0.05,0.15,0.07,0.3,0.07,0.46c0,0.2-0.04,0.39-0.11,0.57c-0.07,0.17-0.18,0.33-0.3,0.46l0,6.8c0.13,0.13,0.23,0.29,0.3,0.47
	c0.07,0.18,0.11,0.37,0.11,0.57c0,0.19-0.04,0.38-0.11,0.55c-0.07,0.18-0.17,0.34-0.3,0.47l-0.03,0.03
	c-0.14,0.14-0.3,0.25-0.49,0.32c-0.15,0.06-0.32,0.1-0.5,0.11l-2.52,2.81l0.01,0.18c0,0.19-0.04,0.38-0.11,0.55
	c-0.07,0.18-0.17,0.34-0.3,0.47l-0.03,0.03c-0.14,0.14-0.3,0.25-0.48,0.32c-0.18,0.07-0.37,0.11-0.57,0.11
	c-0.19,0-0.38-0.04-0.55-0.11c-0.18-0.07-0.34-0.17-0.47-0.3c-0.26-0.23-0.19-0.13-0.64-0.13l-0.09,0.1
	c-0.14,0.14-0.3,0.25-0.48,0.32c-0.15,0.06-0.32,0.1-0.5,0.11l-3.18,3.73l0.01,0.13c0,0.19-0.04,0.38-0.11,0.55
	c-0.07,0.18-0.17,0.34-0.3,0.47l-0.03,0.03c-0.14,0.14-0.3,0.25-0.49,0.32c-0.18,0.07-0.37,0.11-0.57,0.11
	c-0.19,0-0.37-0.04-0.54-0.1c-0.13-0.05-0.26-0.12-0.37-0.21l-9.88,1.73l-0.05,0.07c-0.04,0.06-0.09,0.11-0.14,0.17l-0.02,0.03
	c-0.14,0.14-0.3,0.25-0.49,0.32C314.83,470.83,314.72,470.86,314.61,470.88z M314.36,466.15h-0.25v-0.02
	c-0.11-0.02-0.22-0.05-0.32-0.09c-0.18-0.08-0.35-0.19-0.48-0.32l-0.02-0.03c-0.05-0.06-0.1-0.11-0.14-0.17l-0.06-0.09l-8.55-2.31
	l-0.14,0.03c-0.07,0.01-0.14,0.02-0.21,0.02c-0.2,0-0.39-0.04-0.57-0.11c-0.18-0.08-0.35-0.19-0.49-0.32l-0.03-0.03
	c-0.13-0.14-0.23-0.3-0.3-0.47c-0.07-0.17-0.11-0.36-0.11-0.55c0-0.2,0.04-0.39,0.11-0.57c0.08-0.18,0.19-0.35,0.32-0.48l0.03-0.03
	c0.1-0.09,0.21-0.17,0.33-0.24c0.09-0.05,0.19-0.09,0.29-0.11l8.96-13.09l-12.79-2.09c-0.14,0.13-0.3,0.24-0.47,0.31
	s-0.37,0.11-0.57,0.11c-0.12,0-0.25-0.02-0.37-0.05c-0.07-0.02-0.15-0.04-0.21-0.07l-5.88,3.58c-0.03,0.11-0.07,0.22-0.12,0.32
	c-0.07,0.14-0.17,0.27-0.27,0.38c-0.09,0.09-0.14,0.13-0.25,0.2l0,6.36l0.07,0.04c0.07,0.05,0.13,0.1,0.18,0.15
	c0.14,0.14,0.25,0.3,0.32,0.49c0.07,0.18,0.11,0.37,0.11,0.57c0,0.09-0.01,0.18-0.02,0.26l-0.02,0.11l2.36,2.63l0.12,0
	c0.2,0,0.39,0.04,0.57,0.11c0.18,0.08,0.35,0.19,0.49,0.32l0.11,0.12h0.49l0.11-0.12c0.14-0.14,0.3-0.25,0.48-0.33
	c0.18-0.07,0.37-0.11,0.57-0.11c0.2,0,0.39,0.04,0.57,0.11c0.18,0.08,0.35,0.19,0.49,0.32c0.14,0.14,0.25,0.3,0.32,0.49
	c0.07,0.18,0.11,0.37,0.11,0.57c0,0.09-0.01,0.18-0.02,0.26l-0.02,0.11l2.98,3.5l0.01,0c0.06-0.01,0.11-0.01,0.16-0.01
	c0.2,0,0.39,0.04,0.57,0.11c0.18,0.08,0.35,0.19,0.48,0.33c0.08,0.08,0.14,0.16,0.2,0.25c0.03,0.05,0.06,0.1,0.09,0.15l9.6,1.77
	l0.05-0.06c0.14-0.14,0.3-0.25,0.48-0.32c0.1-0.04,0.21-0.07,0.32-0.09v-0.02h0.5v0.02c0.11,0.02,0.22,0.05,0.32,0.09
	c0.18,0.08,0.35,0.19,0.48,0.32l0.05,0.06l9.6-1.77c0.03-0.05,0.05-0.1,0.09-0.15c0.06-0.09,0.13-0.18,0.2-0.25
	c0.14-0.14,0.3-0.25,0.49-0.32c0.18-0.07,0.37-0.11,0.57-0.11c0.05,0,0.1,0,0.16,0.01l0.01,0l2.98-3.5l-0.02-0.11
	c-0.02-0.09-0.02-0.17-0.02-0.26c0-0.2,0.04-0.39,0.11-0.57c0.08-0.18,0.19-0.35,0.32-0.49c0.14-0.14,0.3-0.25,0.49-0.32
	c0.18-0.07,0.37-0.11,0.57-0.11c0.2,0,0.4,0.04,0.57,0.11c0.18,0.08,0.35,0.19,0.48,0.33l0.11,0.12h0.49l0.11-0.12
	c0.14-0.14,0.3-0.25,0.49-0.32c0.18-0.07,0.37-0.11,0.57-0.11l0.12,0l2.36-2.63l-0.02-0.11c-0.01-0.08-0.02-0.17-0.02-0.26
	c0-0.2,0.04-0.39,0.11-0.57c0.08-0.18,0.19-0.35,0.32-0.49c0.05-0.05,0.11-0.11,0.18-0.15l0.07-0.04l0-6.36
	c-0.1-0.07-0.16-0.11-0.25-0.2c-0.11-0.11-0.2-0.24-0.27-0.38c-0.05-0.1-0.09-0.21-0.12-0.32l-5.88-3.58
	c-0.07,0.03-0.14,0.05-0.21,0.07c-0.12,0.03-0.25,0.05-0.37,0.05c-0.2,0-0.39-0.04-0.57-0.11s-0.34-0.18-0.47-0.31l-12.79,2.09
	l8.96,13.09c0.1,0.03,0.2,0.07,0.29,0.11c0.12,0.06,0.23,0.15,0.33,0.24l0.03,0.03c0.14,0.14,0.25,0.3,0.32,0.48
	c0.07,0.18,0.11,0.37,0.11,0.57c0,0.19-0.04,0.38-0.11,0.55c-0.07,0.18-0.17,0.34-0.3,0.47l-0.03,0.03
	c-0.14,0.14-0.3,0.25-0.49,0.32c-0.18,0.07-0.37,0.11-0.57,0.11c-0.07,0-0.14-0.01-0.21-0.02l-0.14-0.03l-8.55,2.31l-0.06,0.09
	c-0.04,0.06-0.09,0.12-0.14,0.17l-0.02,0.03c-0.14,0.14-0.3,0.25-0.49,0.32c-0.1,0.04-0.21,0.07-0.32,0.09v0.02H314.36z
	 M266.26,396.74l11.01,10.41l0.82-7.38l-0.11-0.1c-0.04-0.04-0.09-0.1-0.13-0.15l-0.05-0.07L266.26,396.74z"/>
</svg>
