<?xml version="1.0" encoding="UTF-8"?><svg id="Layer_1" xmlns="http://www.w3.org/2000/svg" viewBox="0 0 789.62 712.13"><defs><style>.cls-1{fill:#223567;}</style></defs><polygon class="cls-1" points="394.27 709.08 339.43 699.72 314.89 670.88 300.12 670.88 277.52 645.7 277.52 597.05 282.63 594.21 265.97 549.58 214.67 454.41 208.65 387.51 113 399.7 38.25 341.7 126.06 309.16 29.93 247.27 2.43 146.04 2.74 145.42 73.24 1.18 77.13 139.34 136.59 206.08 268.37 213.43 394.57 235.39 394.59 239.09 268.28 217.13 134.85 209.68 73.47 140.79 69.96 16.31 6.37 146.41 33.13 244.93 134.28 310.05 45.77 342.86 114.05 395.84 211.99 383.36 218.29 453.33 269.39 548.17 287.21 595.89 281.22 599.22 281.22 644.28 301.77 667.18 316.6 667.18 341.38 696.3 394.89 705.44 394.27 709.08"/><polygon class="cls-1" points="394.89 709.08 394.27 705.44 447.78 696.3 472.56 667.18 487.39 667.18 507.94 644.28 507.94 599.22 501.95 595.89 519.88 547.93 570.87 453.33 577.17 383.36 675.11 395.84 743.39 342.86 654.87 310.05 756.03 244.93 782.79 146.41 719.19 16.31 715.69 140.79 654.31 209.68 653.54 209.73 520.99 217.12 394.57 239.09 394.59 235.39 520.9 213.43 652.57 206.08 712.03 139.34 715.92 1.18 786.72 146.04 759.23 247.27 663.1 309.16 750.91 341.7 676.16 399.7 675.4 399.6 580.51 387.51 574.48 454.41 574.3 454.75 523.19 549.58 506.53 594.21 511.64 597.05 511.64 645.7 489.04 670.88 474.27 670.88 449.73 699.72 394.89 709.08"/><path class="cls-1" d="m211.75,389.33l-87.83-83.11,94.59,22.3-6.76,60.81Zm-75.32-76.35l72.46,68.56,5.57-50.16-78.04-18.39Z"/><rect class="cls-1" x="76.99" y="351.84" width="89.72" height="3.7" transform="translate(-248.31 407.78) rotate(-79.3)"/><polygon class="cls-1" points="216.79 333.76 134.18 208.9 137.26 206.86 216.18 326.14 266.59 214.52 269.96 216.04 216.79 333.76"/><polygon class="cls-1" points="571.89 333.77 519.2 216.03 522.58 214.52 572.53 326.13 651.9 206.86 654.98 208.9 571.89 333.77"/><path class="cls-1" d="m577.44,389.31l-7.26-60.78,95.05-22.29-87.79,83.07Zm-3.19-57.93l6,50.19,72.5-68.6-78.5,18.4Z"/><rect class="cls-1" x="665.46" y="308.83" width="3.7" height="89.72" transform="translate(-54.03 129.95) rotate(-10.69)"/><path class="cls-1" d="m322.28,399.88l-70.63-46.87-3.32-101.79,149.81,113.65-75.87,35.01Zm-66.99-48.9l67.32,44.68,68.4-31.57-138.72-105.23,3,92.12Z"/><path class="cls-1" d="m464.45,399.88l-73.41-35.04,149.6-113.61-2.99,101.8-73.2,46.86Zm-66.34-35.76l66.08,31.54,69.83-44.7,2.7-92.11-138.61,105.26Z"/><polygon class="cls-1" points="503.3 596.64 465.09 574.1 434.49 481.19 484.17 423.98 484.56 423.81 578.11 383.74 579.57 387.14 486.4 427.04 438.66 482.03 468.17 571.62 505.18 593.46 503.3 596.64"/><polygon class="cls-1" points="285.88 596.63 283.96 593.47 320.91 571.01 351.25 480.83 301.09 426.44 209.59 387.14 211.05 383.74 303.27 423.35 355.45 479.93 323.98 573.47 285.88 596.63"/><polygon class="cls-1" points="519.73 549.33 482.52 422.67 573.25 452.11 572.1 455.63 488.05 428.35 523.28 548.29 519.73 549.33"/><rect class="cls-1" x="492.91" y="424.98" width="3.7" height="170.6" transform="translate(-53.64 58.14) rotate(-6.38)"/><polygon class="cls-1" points="269.44 549.31 265.87 548.32 299.46 427.76 217.08 455.62 215.89 452.12 304.9 422.02 269.44 549.31"/><rect class="cls-1" x="208.03" y="508.12" width="171.03" height="3.7" transform="translate(-243.36 750.74) rotate(-84.23)"/><rect class="cls-1" x="506.49" y="377.07" width="54.05" height="3.7" transform="translate(110.14 877.89) rotate(-85.07)"/><polygon class="cls-1" points="436.65 487.29 394.59 369.98 353.39 485.77 321.9 401.59 303.66 426 300.7 423.79 322.99 393.95 353.31 474.98 394.57 358.98 436.51 475.94 463.67 393.84 486.76 424.4 483.81 426.63 464.97 401.69 436.65 487.29"/><rect class="cls-1" x="555.08" y="348.41" width="3.7" height="49.98" transform="translate(-38.45 681.82) rotate(-61.23)"/><rect class="cls-1" x="254.55" y="351.83" width="3.7" height="54.81" transform="translate(-39.05 29.57) rotate(-6.13)"/><rect class="cls-1" x="207.19" y="371.56" width="49.41" height="3.7" transform="translate(-152.49 160.21) rotate(-29.14)"/><polygon class="cls-1" points="394.57 587.68 322.1 574.06 322.79 570.42 394.59 583.92 466.3 571.04 466.96 574.68 394.57 587.68"/><path class="cls-1" d="m394.96,686.4l-49.25-16.31,48.85-88.07,49.66,88.07-49.26,16.31Zm-43.85-18.42l43.85,14.52,43.83-14.51-44.2-78.39-43.48,78.39Z"/><path class="cls-1" d="m466.88,640.93l-21.32-11.89,10.97-22.71,24.56-12.41,7.35,27.81-21.56,19.2Zm-16.47-13.43l15.97,8.91,17.9-15.94-5.6-21.2-19.37,9.79-8.91,18.44Z"/><path class="cls-1" d="m322.74,640.93l-21.56-19.2,7.35-27.81,24.56,12.41,10.97,22.71-21.32,11.89Zm-17.41-20.45l17.9,15.94,15.98-8.91-8.91-18.44-19.37-9.79-5.6,21.2Z"/><polygon class="cls-1" points="441.03 670.82 393.59 658.01 348.93 670.81 347.91 667.26 393.56 654.17 441.99 667.25 441.03 670.82"/><circle class="cls-1" cx="72.73" cy="5.55" r="4.8"/><circle class="cls-1" cx="4.8" cy="146.11" r="4.8"/><circle class="cls-1" cx="32.11" cy="246.41" r="4.8"/><circle class="cls-1" cx="130.24" cy="309.26" r="4.8"/><circle class="cls-1" cx="215.89" cy="328.97" r="4.8"/><circle class="cls-1" cx="254.37" cy="352.58" r="4.8"/><circle class="cls-1" cx="394.27" cy="363.77" r="4.8"/><circle class="cls-1" cx="463.75" cy="397.25" r="4.8"/><circle class="cls-1" cx="485.79" cy="425.3" r="4.8"/><circle class="cls-1" cx="572.33" cy="453.48" r="4.8"/><circle class="cls-1" cx="436.82" cy="478.97" r="4.8"/><circle class="cls-1" cx="536.1" cy="352.39" r="4.8"/><circle class="cls-1" cx="531.31" cy="404.86" r="4.8"/><circle class="cls-1" cx="578.84" cy="384.51" r="4.8"/><circle class="cls-1" cx="675.54" cy="396.91" r="4.8"/><circle class="cls-1" cx="572.87" cy="328.97" r="4.8"/><circle class="cls-1" cx="658.71" cy="309.26" r="4.8"/><circle class="cls-1" cx="747.3" cy="342.16" r="4.8"/><circle class="cls-1" cx="757.4" cy="246.41" r="4.8"/><circle class="cls-1" cx="259.17" cy="405.42" r="4.8"/><circle class="cls-1" cx="217.28" cy="453.75" r="4.8"/><circle class="cls-1" cx="323.24" cy="397.25" r="4.8"/><circle class="cls-1" cx="301.82" cy="424.71" r="4.8"/><circle class="cls-1" cx="267.26" cy="547.26" r="4.8"/><circle class="cls-1" cx="521.72" cy="547.26" r="4.8"/><circle class="cls-1" cx="280.09" cy="644.91" r="4.8"/><circle class="cls-1" cx="301.18" cy="668.98" r="4.8"/><circle class="cls-1" cx="316.28" cy="668.98" r="4.8"/><circle class="cls-1" cx="340.92" cy="697.75" r="4.8"/><circle class="cls-1" cx="394.89" cy="707.34" r="4.8"/><circle class="cls-1" cx="448.14" cy="697.75" r="4.8"/><circle class="cls-1" cx="473.3" cy="669.7" r="4.8"/><circle class="cls-1" cx="488.44" cy="668.68" r="4.8"/><circle class="cls-1" cx="509.45" cy="645.72" r="4.8"/><circle class="cls-1" cx="509.45" cy="598.71" r="4.8"/><circle class="cls-1" cx="322.62" cy="572.6" r="4.8"/><circle class="cls-1" cx="394.89" cy="585.04" r="4.8"/><circle class="cls-1" cx="440.77" cy="669.7" r="4.8"/><circle class="cls-1" cx="348.85" cy="669.7" r="4.8"/><circle class="cls-1" cx="394.27" cy="656.23" r="4.8"/><circle class="cls-1" cx="309.69" cy="596.64" r="4.8"/><circle class="cls-1" cx="480.25" cy="596.63" r="4.8"/><circle class="cls-1" cx="303.17" cy="620.72" r="4.8"/><circle class="cls-1" cx="486.78" cy="620.72" r="4.8"/><circle class="cls-1" cx="323.57" cy="637.68" r="4.8"/><circle class="cls-1" cx="466.96" cy="637.68" r="4.8"/><circle class="cls-1" cx="332.21" cy="608.3" r="4.8"/><circle class="cls-1" cx="457.73" cy="608.3" r="4.8"/><circle class="cls-1" cx="340.92" cy="628.09" r="4.8"/><circle class="cls-1" cx="448.14" cy="628.09" r="4.8"/><circle class="cls-1" cx="394.53" cy="683.77" r="4.8"/><circle class="cls-1" cx="465.89" cy="572.6" r="4.8"/><circle class="cls-1" cx="280.09" cy="597.27" r="4.8"/><circle class="cls-1" cx="353.44" cy="478.97" r="4.8"/><circle class="cls-1" cx="249.58" cy="254.3" r="4.8"/><circle class="cls-1" cx="538.93" cy="254.3" r="4.8"/><circle class="cls-1" cx="41.7" cy="341.9" r="4.8"/><circle class="cls-1" cx="113.27" cy="396.75" r="4.8"/><circle class="cls-1" cx="209.59" cy="383.74" r="4.8"/><circle class="cls-1" cx="75.79" cy="139.79" r="4.8"/><circle class="cls-1" cx="136.99" cy="207.66" r="4.8"/><circle class="cls-1" cx="266.95" cy="215.2" r="4.8"/><circle class="cls-1" cx="521.91" cy="215.2" r="4.8"/><circle class="cls-1" cx="394.89" cy="237.64" r="4.8"/><circle class="cls-1" cx="652.62" cy="208.19" r="4.8"/><circle class="cls-1" cx="713.01" cy="139.85" r="4.8"/><circle class="cls-1" cx="716.48" cy="4.8" r="4.8"/><circle class="cls-1" cx="784.82" cy="145.76" r="4.8"/></svg>