<?xml version="1.0" encoding="UTF-8" standalone="no"?>
<svg
   xmlns:dc="http://purl.org/dc/elements/1.1/"
   xmlns:cc="http://creativecommons.org/ns#"
   xmlns:rdf="http://www.w3.org/1999/02/22-rdf-syntax-ns#"
   xmlns:svg="http://www.w3.org/2000/svg"
   xmlns="http://www.w3.org/2000/svg"
   viewBox="0 0 793.70081 1122.5197"
   height="1122.5197"
   width="793.70081"
   xml:space="preserve"
   id="svg2"
   version="1.1"><metadata
     id="metadata8"><rdf:RDF><cc:Work
         rdf:about=""><dc:format>image/svg+xml</dc:format><dc:type
           rdf:resource="http://purl.org/dc/dcmitype/StillImage" /></cc:Work></rdf:RDF></metadata><defs
     id="defs6" /><g
     transform="matrix(1.3333333,0,0,-1.3333333,0,1122.5197)"
     id="g10"><g
       id="g12"><path
         id="path14"
         style="fill:#c0a978;fill-opacity:1;fill-rule:nonzero;stroke:#d3ae6e;stroke-width:0.21600001;stroke-linecap:butt;stroke-linejoin:miter;stroke-miterlimit:22.92558479;stroke-dasharray:none;stroke-opacity:1"
         d="m 192.5603,392.466 h 21.3605 c 5.8575,0 10.6988,0.6611 14.654,1.876 3.8763,1.1906 6.906,2.9129 9.2134,5.0635 2.2728,2.1187 3.8619,4.6781 4.8841,7.5722 1.0398,2.9438 1.4987,6.2516 1.4987,9.8116 0,3.8202 -0.6355,7.1844 -1.8624,10.0752 v 0.006 c -1.2319,2.9033 -3.0682,5.3504 -5.462,7.323 -2.4543,2.0226 -5.5035,3.5612 -9.097,4.597 -3.6383,1.0482 -7.8525,1.5823 -12.5938,1.5823 h -22.5955 v -47.9067 z m 224.4546,28.1418 25.1669,-1.7271 -3e-4,-0.003 c 0.4742,-0.0261 0.9008,-0.2302 1.2126,-0.5463 0.3306,-0.3365 0.5352,-0.7948 0.5352,-1.2951 v -42.7181 l -0.006,-0.0117 c -0.003,-0.3359 -0.0961,-0.6655 -0.2685,-0.9487 l -0.002,0.002 c -0.1698,-0.2789 -0.4116,-0.5156 -0.7132,-0.6744 -3.0952,-1.6319 -6.4817,-3.0498 -10.0514,-4.2664 -3.7908,-1.292 -7.8026,-2.3615 -11.9029,-3.2236 -4.3328,-0.9107 -8.7602,-1.5891 -13.1256,-2.0537 -4.0975,-0.4359 -8.1595,-0.6848 -12.0529,-0.7616 v -23.5715 c 0,-0.5046 -0.2072,-0.9658 -0.5423,-1.3023 l -0.006,-0.006 c -0.3365,-0.3351 -0.7977,-0.5423 -1.3023,-0.5423 h -10.6543 c -0.504,0 -0.9655,0.2066 -1.3022,0.5423 l -0.006,0.006 c -0.335,0.3365 -0.5423,0.7977 -0.5423,1.3023 v 24.0899 l -0.9249,0.0947 c -0.7146,0.0754 -1.4848,0.1658 -2.308,0.2704 -0.8583,0.1092 -1.5925,0.2089 -2.1897,0.2982 l -0.3935,0.0596 v -24.8128 c 0,-0.5046 -0.2072,-0.9658 -0.5422,-1.3023 l -0.006,-0.006 c -0.3365,-0.3351 -0.7977,-0.5423 -1.3023,-0.5423 h -10.6543 c -0.504,0 -0.9654,0.2066 -1.3022,0.5423 l -0.006,0.006 c -0.335,0.3365 -0.5422,0.7977 -0.5422,1.3023 v 28.2432 c -7.5297,2.5198 -14.2124,6.05 -20.0143,10.5894 -6.0531,4.7359 -11.1422,10.5599 -15.2303,17.4705 -4.0569,6.8582 -7.1291,14.7898 -9.1803,23.7935 -2.0236,8.8835 -3.0526,18.7965 -3.0526,29.7374 0,10.7597 1.0913,20.3544 3.0866,28.8765 2.1289,9.0939 5.2946,16.9699 9.2676,23.7402 4.267,7.2711 9.4553,13.25 15.2861,18.0825 6.0276,4.9955 12.7421,8.7692 19.8372,11.4826 v 30.6436 c 0,0.5046 0.2072,0.9658 0.5422,1.3022 l 0.006,0.006 c 0.3368,0.3356 0.7982,0.5423 1.3022,0.5423 h 10.6543 c 0.5046,0 0.9658,-0.2072 1.3023,-0.5423 l 0.006,-0.006 c 0.335,-0.3364 0.5422,-0.7976 0.5422,-1.3022 v -26.6346 l 0.3558,0.0652 c 0.7282,0.1321 1.4609,0.2557 2.1963,0.3705 0.7829,0.1219 1.5505,0.2324 2.3,0.3302 l 0.964,0.1213 v 25.7474 c 0,0.5046 0.2073,0.9658 0.5423,1.3022 l 0.006,0.006 c 0.3367,0.3356 0.7982,0.5423 1.3022,0.5423 h 10.6543 c 0.5046,0 0.9658,-0.2072 1.3023,-0.5423 l 0.006,-0.006 c 0.3351,-0.3364 0.5423,-0.7976 0.5423,-1.3022 v -25.0934 c 3.3568,-0.0839 6.8026,-0.3277 10.2844,-0.7367 3.8931,-0.457 7.8792,-1.1257 11.8871,-2.0135 3.8942,-0.8626 7.7845,-1.9292 11.601,-3.2068 3.6953,-1.2365 7.31,-2.662 10.7808,-4.2803 0.3072,-0.1378 0.57,-0.3555 0.7611,-0.6265 0.2137,-0.3027 0.3393,-0.6693 0.3393,-1.0627 v -41.9766 h -0.006 c -10e-4,-0.4855 -0.1891,-0.9331 -0.4992,-1.2642 -0.3078,-0.3271 -0.7353,-0.5454 -1.2223,-0.5783 l -25.31,-1.7365 c -0.504,0 -0.9654,0.2067 -1.3022,0.5423 l -0.006,0.006 c -0.3356,0.3368 -0.5422,0.7983 -0.5422,1.3023 v 19.26 c 0,1.095 -0.0383,2.0041 -0.152,2.7309 -0.1023,0.6559 -0.2636,1.1888 -0.5133,1.6154 -0.2291,0.3915 -0.5624,0.7328 -1.0284,1.044 -0.5307,0.3547 -1.2305,0.673 -2.1308,0.9783 l -0.0672,0.0176 c -0.9902,0.3123 -2.0257,0.5728 -3.0801,0.7871 -1.1475,0.2328 -2.4044,0.4284 -3.7171,0.5896 -1.4403,0.1769 -2.8715,0.3019 -4.2443,0.3824 -1.5134,0.089 -3.0274,0.1282 -4.4524,0.1282 -7.3089,0 -13.7098,-1.262 -19.2027,-3.6862 -5.5823,-2.4636 -10.2433,-6.1319 -13.9814,-10.8989 -3.8398,-4.896 -6.7314,-10.9747 -8.6734,-18.1202 -1.9735,-7.2621 -2.9605,-15.6189 -2.9605,-24.9531 0,-9.5621 0.7849,-18.1863 2.4862,-25.7137 1.6878,-7.4676 4.2733,-13.8645 7.884,-19.0357 3.5604,-5.0984 8.14,-9.0253 13.8657,-11.6323 5.7614,-2.6235 12.706,-3.9237 20.9634,-3.7545 l 0.1128,0.009 c 1.7679,0 3.4631,0.0459 5.0618,0.1372 1.5925,0.0913 3.1638,0.2313 4.6936,0.4195 1.5015,0.1848 2.9001,0.4085 4.1735,0.6693 1.2438,0.2548 2.4304,0.5584 3.5407,0.9088 l 0.002,-0.005 c 0.921,0.3075 1.6413,0.6332 2.1952,1.002 0.4671,0.3113 0.8008,0.6517 1.0292,1.0426 0.2498,0.4266 0.411,0.9595 0.5134,1.6155 0.1136,0.7268 0.1519,1.6358 0.1519,2.7306 h 0.006 l 10e-4,19.8714 c 0.0329,0.5097 0.2721,0.9598 0.6281,1.2708 0.3566,0.3115 0.8303,0.4892 1.3374,0.4549 z m -206.3032,86.4343 h -18.1514 v -40.9938 h 16.4223 c 4.716,0 8.7672,0.497 12.2011,1.4126 3.5575,0.9487 6.4573,2.3473 8.7523,4.1074 l 0.0102,0.007 c 2.3782,1.8281 4.1136,4.057 5.2656,6.5824 1.2223,2.6793 1.7983,5.7228 1.7983,9.0042 0,4.1513 -0.6874,7.4608 -1.9457,10.0777 -1.2282,2.5543 -3.0163,4.4757 -5.25,5.9009 -2.3077,1.4726 -5.1174,2.4421 -8.2993,3.0475 -3.2482,0.6183 -6.8953,0.8538 -10.8034,0.8538 z M 271.315,442.961 c 2.7371,-3.454 4.875,-7.4373 6.3079,-11.9574 1.3711,-4.3248 2.1025,-9.1426 2.1025,-14.4609 0,-7.7278 -1.2606,-14.6353 -3.7355,-20.6946 -2.5061,-6.1356 -6.2493,-11.3746 -11.1813,-15.6881 -4.8807,-4.269 -10.9173,-7.6221 -18.0606,-10.0315 -6.698,-2.2592 -14.374,-3.6899 -22.9862,-4.2696 v -27.0504 c 0,-0.5046 -0.2072,-0.9658 -0.5422,-1.3023 l -0.006,-0.006 c -0.3368,-0.3357 -0.7982,-0.5423 -1.3022,-0.5423 h -10.6543 c -0.5046,0 -0.9658,0.2072 -1.3023,0.5423 l -0.006,0.006 c -0.335,0.3365 -0.5422,0.7977 -0.5422,1.3023 v 26.746 h -5.8161 v -26.746 c 0,-0.5046 -0.2073,-0.9658 -0.5423,-1.3023 l -0.006,-0.006 c -0.3367,-0.3357 -0.7982,-0.5423 -1.3022,-0.5423 h -10.6543 c -0.5046,0 -0.9658,0.2072 -1.3023,0.5423 l -0.006,0.006 c -0.3351,0.3365 -0.5423,0.7977 -0.5423,1.3023 v 26.746 h -43.9602 c -0.5046,0 -0.9658,0.2072 -1.3023,0.5423 l -0.006,0.006 c -0.3351,0.3365 -0.5423,0.7977 -0.5423,1.3023 v 20.0009 l 0.006,0.0117 c 0.004,0.4722 0.1851,0.9104 0.4856,1.2376 0.2968,0.3234 0.7138,0.5425 1.1925,0.5862 l 8.1057,0.7375 -3e-4,0.003 c 0.9244,0.1085 1.7703,0.2676 2.5042,0.5068 0.6621,0.216 1.2319,0.498 1.682,0.8714 0.4057,0.3364 0.7285,0.767 0.9502,1.3161 0.2492,0.6174 0.3838,1.4009 0.3838,2.3842 V 508.13 l -12.225,0.6426 c -0.5045,-0.002 -0.9657,0.2052 -1.3022,0.5403 l -0.006,0.006 c -0.3356,0.3367 -0.5422,0.7982 -0.5422,1.3022 v 20.9883 c 0,0.5045 0.2072,0.9657 0.5422,1.3022 l 0.006,0.006 c 0.3365,0.335 0.7977,0.5423 1.3022,0.5423 h 42.7258 v 28.0088 c 0,0.5046 0.2072,0.9658 0.5423,1.3022 l 0.006,0.006 c 0.3365,0.3351 0.7977,0.5423 1.3023,0.5423 h 10.6543 c 0.504,0 0.9655,-0.2067 1.3022,-0.5423 l 0.006,-0.006 c 0.335,-0.3364 0.5423,-0.7976 0.5423,-1.3022 v -28.0088 h 5.8161 v 28.0088 c 0,0.5046 0.2072,0.9658 0.5422,1.3022 l 0.006,0.006 c 0.3365,0.3351 0.7977,0.5423 1.3023,0.5423 h 10.6543 c 0.504,0 0.9654,-0.2067 1.3022,-0.5423 l 0.006,-0.006 c 0.335,-0.3364 0.5422,-0.7976 0.5422,-1.3022 V 533.23 c 5.9562,-0.3606 11.7026,-1.1821 17.009,-2.6238 5.7958,-1.5749 11.0872,-3.8914 15.5866,-7.1563 4.5902,-3.3305 8.341,-7.6332 10.9454,-13.1191 2.583,-5.4405 4.0264,-12.0251 4.0264,-19.957 0,-3.9512 -0.5341,-7.6428 -1.5299,-11.0772 -1.0414,-3.5915 -2.5906,-6.8859 -4.5635,-9.8884 -1.9939,-3.0348 -4.4076,-5.7572 -7.1561,-8.1751 -2.0304,-1.7864 -4.2502,-3.4143 -6.6234,-4.8861 3.5666,-1.2042 6.8862,-2.7383 9.9071,-4.6077 3.8441,-2.3791 7.1972,-5.3016 9.9516,-8.7775 z" /><path
         id="path16"
         style="fill:#c0a978;fill-opacity:1;fill-rule:nonzero;stroke:none"
         d="m 245.6909,279.5369 c -0.8776,0 -1.5344,-0.3025 -1.97,-0.8575 l -0.0139,-0.0164 c -0.4601,-0.599 -0.6906,-1.495 -0.6906,-2.6323 0,-1.1874 0.1891,-2.1373 0.6299,-2.7686 0.417,-0.5975 1.0862,-0.9204 2.0696,-0.8989 h 0.007 c 0.2146,0.002 0.4201,0.0128 0.6052,0.0358 0.1729,0.0209 0.3291,0.0527 0.4581,0.0932 l 0.0805,0.0289 c 0.008,0.0142 0.0107,0.0723 0.0107,0.1656 v 1.2795 c 0,0.1934 0.1568,0.3501 0.3501,0.3501 l 1.6546,-0.1125 c 0.1845,-0.0122 0.3263,-0.1661 0.3263,-0.3487 l 5e-4,-2.7686 c 0,-0.144 -0.087,-0.2679 -0.2114,-0.3214 -0.4343,-0.2248 -0.9502,-0.3889 -1.484,-0.4995 -0.6159,-0.1273 -1.2566,-0.1851 -1.8224,-0.1851 -1.7376,0 -3.0875,0.5012 -4.0067,1.5026 -0.8983,0.9783 -1.3675,2.4186 -1.3675,4.3195 0,1.9718 0.5528,3.3639 1.3998,4.3027 1.0468,1.1596 2.5288,1.6149 3.9744,1.6149 0.5122,0 1.0707,-0.0587 1.6285,-0.18 0.5196,-0.1134 1.0412,-0.2818 1.5265,-0.508 0.1273,-0.0592 0.2021,-0.1854 0.2021,-0.3172 l 3e-4,-2.721 c 0,-0.1921 -0.1551,-0.3483 -0.347,-0.35 l -1.6109,-0.1103 c -0.1925,-0.0128 -0.3592,0.1329 -0.3719,0.3254 l -0.001,1.2708 c 0,0.0924 -0.003,0.1502 -0.0119,0.167 l -0.0791,0.0291 c -0.1162,0.0352 -0.2566,0.0616 -0.4008,0.0794 -0.1815,0.0224 -0.3708,0.0315 -0.5344,0.0315 z m 102.1641,-4.2602 h 2.0168 l -0.9918,3.1408 z m -0.972,4.305 -0.5664,0.0538 c -0.1806,0.017 -0.3161,0.1695 -0.3158,0.3473 l -0.001,1.2957 c 0,0.1933 0.1568,0.3501 0.3501,0.3501 h 3.6635 c 0.161,0 0.2965,-0.1086 0.3373,-0.2566 l 3.1782,-8.9881 0.6939,-0.0368 c 0.1865,-0.009 0.3311,-0.1639 0.3314,-0.3487 l 8e-4,-1.3598 c 0,-0.1933 -0.1567,-0.35 -0.35,-0.35 h -4.1278 c -0.1934,0 -0.3501,0.1567 -0.3501,0.35 v 1.2966 c 0,0.1894 0.1502,0.3436 0.3379,0.3498 0.0113,9e-4 0.7217,0.0516 0.729,0.0598 0.0196,0.0213 -0.036,-0.0184 -0.053,0.006 l -0.2574,0.7543 h -3.2445 l -0.2492,-0.7331 0.4958,-0.0249 c 0.1871,-0.009 0.3328,-0.1633 0.3325,-0.3487 l 0.001,-1.3598 c 0,-0.1933 -0.1568,-0.35 -0.3501,-0.35 h -3.6955 c -0.1934,0 -0.3501,0.1567 -0.3501,0.35 v 1.2966 c 0,0.1933 0.1567,0.3501 0.3498,0.3501 l 0.4892,0.0442 c 0.0547,0.007 0.0851,0.0148 0.0958,0.0252 0.0273,0.0267 0.057,0.0924 0.095,0.1962 l 2.4299,7.0308 z m -11.556,-2.8814 c 0.5884,0 1.0023,0.1238 1.2571,0.3594 0.2447,0.2262 0.3606,0.5808 0.3606,1.0502 0,0.5772 -0.1468,0.8898 -0.4136,1.0477 -0.3078,0.1823 -0.8042,0.2186 -1.4286,0.2186 h -0.8176 v -2.6759 z m -4.3365,-4.415 0.4884,0.0442 c 0.0749,0.009 0.1313,0.0207 0.1511,0.0371 l 0.003,7.172 -0.5797,0.0309 c -0.1866,0.009 -0.3311,0.1638 -0.3314,0.3486 l -9e-4,1.3604 c 0,0.1933 0.1568,0.3501 0.3501,0.3501 h 4.3679 c 1.245,0 2.272,-0.2104 3.0016,-0.7189 0.7626,-0.5312 1.1886,-1.3609 1.1886,-2.5753 0,-0.7772 -0.2245,-1.4028 -0.5596,-1.8941 -0.2792,-0.4093 -0.6355,-0.7223 -1.0023,-0.9513 l 0.0955,-0.1001 c 0.1647,-0.1842 0.2988,-0.4124 0.4284,-0.7052 l 1.0587,-2.3125 0.6959,-0.0241 c 0.1888,-0.006 0.3376,-0.161 0.3379,-0.3487 l 0.001,-1.3598 c 0,-0.1933 -0.1567,-0.35 -0.3501,-0.35 h -3.952 c -0.1933,0 -0.3501,0.1567 -0.3501,0.35 v 1.2966 c 0,0.1902 0.1519,0.3453 0.341,0.3501 l 0.4723,0.0468 c -0.1673,0.2335 -0.6234,1.2968 -0.7645,1.6197 -0.0913,0.1998 -0.1758,0.3435 -0.2767,0.4235 -0.0901,0.0703 -0.2186,0.1054 -0.4139,0.1054 h -1.1058 V 272.38 l 0.705,-0.0329 c 0.1874,-0.008 0.3339,-0.1627 0.3339,-0.3487 l 10e-4,-1.3598 c 0,-0.1933 -0.1568,-0.35 -0.3501,-0.35 h -3.9841 c -0.1933,0 -0.3501,0.1567 -0.3501,0.35 v 1.2966 c 0,0.1933 0.1565,0.3498 0.3498,0.3501 z m -8.9422,0.1117 c 0.7773,0 1.3023,0.3237 1.6433,0.8257 0.4547,0.6693 0.6145,1.6622 0.6145,2.6637 0,0.8915 -0.1321,1.9885 -0.6327,2.7346 -0.3381,0.504 -0.8617,0.851 -1.6577,0.851 -0.7956,0 -1.347,-0.3297 -1.7112,-0.8394 -0.4737,-0.6636 -0.6582,-1.637 -0.6582,-2.6183 0,-0.8672 0.1031,-1.8043 0.4708,-2.5061 0.3416,-0.6529 0.9343,-1.1112 1.9312,-1.1112 z m -0.1116,-2.3165 c -1.5568,0 -2.8256,0.5238 -3.7007,1.5619 -0.8285,0.9828 -1.29,2.4171 -1.29,4.2919 0,1.9165 0.5451,3.2902 1.3603,4.2271 1.0267,1.1803 2.4735,1.6588 3.8058,1.6588 1.387,0 2.7029,-0.4677 3.6247,-1.5948 0.7693,-0.9408 1.2532,-2.3349 1.2532,-4.2911 0,-1.8674 -0.4808,-3.295 -1.3184,-4.2749 -0.8986,-1.0514 -2.1929,-1.5789 -3.7349,-1.5789 z m -13.7087,9.2639 h -0.898 c -0.0178,0 0.006,0.0561 -0.005,0.0363 -0.0105,-0.0216 -0.0125,-0.0955 -0.0125,-0.1826 v -0.752 c 0,-0.1933 -0.1567,-0.3501 -0.3501,-0.3501 l -1.656,0.1137 c -0.1848,0.0122 -0.3262,0.1661 -0.3262,0.3487 l -6e-4,2.7201 c 0,0.1933 0.1568,0.3501 0.3501,0.3501 h 8.3679 c 0.1933,0 0.35,-0.1568 0.35,-0.3501 v -2.7201 c 0,-0.1922 -0.155,-0.3484 -0.3469,-0.3501 l -1.6112,-0.1109 c -0.1925,-0.0127 -0.3592,0.133 -0.3719,0.3255 -0.0114,0.3072 10e-4,0.6239 -0.005,0.934 -0.005,0.008 -0.0243,-0.0125 -0.1117,-0.0125 h -0.7375 v -6.9619 l 0.9269,-0.0354 c 0.1885,-0.007 0.3365,-0.1616 0.3368,-0.3487 l 0.001,-1.3598 c 0,-0.1933 -0.1568,-0.35 -0.3501,-0.35 h -4.5125 c -0.1933,0 -0.35,0.1567 -0.35,0.35 v 1.2966 c 0,0.1933 0.1567,0.3501 0.35,0.3501 l 0.8232,0.0462 c 0.0766,0.008 0.127,0.0173 0.1412,0.0298 0.004,0.003 -0.003,0.0198 -0.003,0.0694 v 6.9137 z m -14.9261,-8.7058 v 1.2966 c 0,0.1933 0.1565,0.3498 0.3498,0.3501 l 0.4879,0.0442 c 0.0748,0.009 0.1312,0.0207 0.151,0.0371 l 0.003,7.172 -0.5797,0.0309 c -0.1865,0.009 -0.3311,0.1638 -0.3314,0.3486 l -8e-4,1.3604 c 0,0.1933 0.1567,0.3501 0.3501,0.3501 h 7.3278 c 0.1933,0 0.3501,-0.1568 0.3501,-0.3501 v -2.6564 c 0,-0.1921 -0.1551,-0.3483 -0.347,-0.35 l -1.612,-0.1103 c -0.1925,-0.0128 -0.3592,0.1329 -0.372,0.3254 l -0.001,0.6636 c 0,0.0873 -8e-4,0.1534 -0.004,0.1579 -0.009,0.003 -0.0329,-0.0125 -0.1097,-0.0125 h -2.0186 v -2.0358 h 3.346 c 0.1933,0 0.3501,-0.1568 0.3501,-0.3501 v -1.6316 c 0,-0.1933 -0.1568,-0.3501 -0.3501,-0.3501 h -3.346 v -2.2918 h 2.2266 c 0.0749,0 0.0839,-0.0286 0.0916,-0.0176 0.005,0.017 0.006,0.087 0.006,0.1792 v 0.8002 c 0,0.1933 0.1568,0.3501 0.3501,0.3501 l 1.6554,-0.1137 c 0.1849,-0.0122 0.3263,-0.1661 0.3263,-0.3487 l 6e-4,-2.8477 c 0,-0.1933 -0.1568,-0.35 -0.3501,-0.35 h -7.5994 c -0.1933,0 -0.3501,0.1567 -0.3501,0.35 z m -8.5612,6.0617 c 0.5891,0 1.0032,0.1238 1.258,0.3594 0.2447,0.2262 0.3603,0.5808 0.3603,1.0502 0,0.5772 -0.1471,0.8898 -0.4138,1.0477 -0.3079,0.1823 -0.8042,0.2186 -1.4281,0.2186 h -0.8178 v -2.6759 z m -4.3353,-4.415 0.4879,0.0442 c 0.0734,0.009 0.1295,0.021 0.1508,0.0386 l 0.002,7.1705 -0.5797,0.0309 c -0.1865,0.009 -0.3311,0.1638 -0.3313,0.3486 l -9e-4,1.3604 c 0,0.1933 0.1568,0.3501 0.3501,0.3501 h 4.3682 c 1.245,0 2.2722,-0.2106 3.0019,-0.7189 0.7622,-0.5312 1.1885,-1.3606 1.1885,-2.5753 0,-0.7772 -0.2245,-1.4028 -0.5595,-1.8941 -0.2792,-0.4093 -0.6356,-0.7225 -1.0026,-0.9513 l 0.0768,-0.0779 c 0.1718,-0.186 0.3112,-0.421 0.4467,-0.7274 l 1.0596,-2.3125 0.6956,-0.0241 c 0.1888,-0.006 0.3376,-0.161 0.3379,-0.3487 l 0.001,-1.3598 c 0,-0.1933 -0.1568,-0.35 -0.3501,-0.35 h -3.9518 c -0.1933,0 -0.3501,0.1567 -0.3501,0.35 v 1.2966 c 0,0.1902 0.152,0.345 0.341,0.3501 l 0.472,0.0468 c -0.1672,0.2335 -0.6236,1.2968 -0.7648,1.6197 -0.0913,0.2001 -0.1755,0.3438 -0.2761,0.4235 -0.089,0.0706 -0.2177,0.1054 -0.4144,0.1054 h -1.1055 V 272.38 l 0.705,-0.0329 c 0.1873,-0.008 0.3339,-0.1627 0.3339,-0.3487 l 10e-4,-1.3598 c 0,-0.1933 -0.1567,-0.35 -0.3501,-0.35 h -3.9835 c -0.1933,0 -0.3501,0.1567 -0.3501,0.35 v 1.2966 c 0,0.1933 0.1565,0.3498 0.3498,0.3501 z m -8.8784,4.415 c 0.5885,0 1.0026,0.1238 1.2575,0.3594 0.2446,0.2262 0.3603,0.5808 0.3603,1.0502 0,0.5772 -0.1472,0.8898 -0.4139,1.0477 -0.3081,0.1826 -0.8045,0.2186 -1.4284,0.2186 h -0.8178 v -2.6759 z m -4.3361,-4.415 0.4881,0.0442 c 0.0748,0.009 0.131,0.0207 0.1508,0.0371 l 0.002,7.172 -0.5796,0.0309 c -0.1866,0.009 -0.3311,0.1638 -0.3314,0.3486 l -9e-4,1.3604 c 0,0.1933 0.1568,0.3501 0.3501,0.3501 h 4.3682 c 1.245,0 2.272,-0.2104 3.0016,-0.7189 0.7625,-0.5312 1.1886,-1.3609 1.1886,-2.5753 0,-0.7772 -0.2245,-1.4028 -0.5593,-1.8938 -0.2795,-0.4099 -0.6358,-0.7231 -1.0023,-0.9519 l 0.0765,-0.0776 c 0.1721,-0.1863 0.3113,-0.421 0.4465,-0.7274 l 1.0596,-2.3125 0.6956,-0.0241 c 0.1888,-0.006 0.3376,-0.161 0.3379,-0.3487 l 10e-4,-1.3598 c 0,-0.1933 -0.1568,-0.35 -0.3501,-0.35 h -3.9512 c -0.1933,0 -0.3501,0.1567 -0.3501,0.35 v 1.2966 c 0,0.1902 0.152,0.345 0.341,0.3501 l 0.4714,0.0468 c -0.1672,0.2335 -0.6236,1.2968 -0.7647,1.6197 -0.0913,0.1998 -0.1752,0.3435 -0.2761,0.4235 -0.0902,0.0703 -0.2186,0.1054 -0.4145,0.1054 h -1.1055 V 272.38 l 0.7053,-0.0329 c 0.1874,-0.008 0.3339,-0.1627 0.3339,-0.3487 l 10e-4,-1.3598 c 0,-0.1933 -0.1567,-0.35 -0.35,-0.35 h -3.9839 c -0.1933,0 -0.35,0.1567 -0.35,0.35 v 1.2966 c 0,0.1933 0.1564,0.3498 0.3498,0.3501 z m -8.9419,0.1117 c 0.777,0 1.3022,0.3237 1.6435,0.826 0.4547,0.6693 0.6148,1.6619 0.6148,2.6634 0,0.8915 -0.1321,1.9885 -0.6327,2.7346 -0.3381,0.504 -0.8617,0.851 -1.6577,0.851 -0.7956,0 -1.3475,-0.3294 -1.7115,-0.8394 -0.474,-0.6636 -0.6585,-1.637 -0.6585,-2.6183 0,-0.8672 0.1032,-1.8043 0.4708,-2.5061 0.3416,-0.6529 0.9343,-1.1112 1.9313,-1.1112 z m -0.1117,-2.3165 c -1.5568,0 -2.8253,0.5238 -3.7004,1.5619 l -0.0175,0.0224 c -0.8175,0.9825 -1.2722,2.4092 -1.2722,4.2695 0,1.9165 0.5451,3.2902 1.36,4.2273 1.027,1.1804 2.4733,1.6586 3.8058,1.6586 1.3867,0 2.7026,-0.4677 3.6244,-1.5948 0.7693,-0.9408 1.2532,-2.3349 1.2532,-4.2911 0,-1.8674 -0.481,-3.2947 -1.3184,-4.2746 -0.8988,-1.0517 -2.1929,-1.5792 -3.7349,-1.5792" /><path
         id="path18"
         style="fill:#3f4096;fill-opacity:1;fill-rule:nonzero;stroke:none"
         d="m 277.346,342.7934 -13.5476,18.6945 c -0.1007,0.1389 -0.1355,0.307 -0.1103,0.4643 0.0249,0.1579 0.1108,0.3067 0.2494,0.4074 0.0553,0.0391 0.1143,0.0688 0.1735,0.0881 0.0649,0.0207 0.1301,0.0309 0.1928,0.0309 l 19.2399,-3e-4 c 0.108,9e-4 0.2117,-0.0275 0.3016,-0.0774 0.0924,-0.0507 0.1706,-0.1247 0.2264,-0.2134 l 13.292,-17.7222 3.185,4.3435 -0.0709,0.1585 c -0.0425,0.1085 -0.0757,0.2225 -0.0981,0.339 -0.0215,0.1162 -0.0334,0.2341 -0.0334,0.3515 0,0.254 0.0513,0.4983 0.144,0.722 0.0955,0.2319 0.2367,0.4402 0.4105,0.6145 0.1746,0.1749 0.3838,0.3167 0.6148,0.4128 0.2236,0.0929 0.4686,0.1445 0.7234,0.1445 0.2545,0 0.4995,-0.0513 0.7231,-0.144 0.2336,-0.0964 0.4428,-0.2375 0.616,-0.4107 0.1735,-0.1735 0.3143,-0.3824 0.4107,-0.6149 0.0927,-0.2247 0.144,-0.4697 0.144,-0.7242 0,-0.254 -0.0516,-0.4983 -0.1443,-0.722 -0.0958,-0.2316 -0.2369,-0.4402 -0.4113,-0.6145 -0.174,-0.1752 -0.3826,-0.3164 -0.6137,-0.4125 -0.2248,-0.0927 -0.47,-0.1443 -0.7245,-0.1443 -0.0717,0 -0.1451,0.005 -0.2191,0.0136 l -0.1177,0.0185 -4.0252,-5.4888 c -0.1017,-0.1391 -0.2511,-0.2245 -0.4087,-0.2483 -0.1576,-0.0229 -0.3249,0.0128 -0.4629,0.1137 -0.0312,0.0232 -0.0584,0.0473 -0.0828,0.0726 -0.0263,0.028 -0.0502,0.0575 -0.0697,0.0876 l -13.8399,18.4532 h -16.6178 l 12.308,-16.9826 0.1142,0.0175 c 0.0735,0.009 0.1469,0.0136 0.2183,0.0136 0.2546,0 0.4995,-0.0513 0.7229,-0.1442 0.2304,-0.0956 0.4393,-0.2367 0.6137,-0.4105 0.1754,-0.1746 0.3171,-0.3835 0.4127,-0.6143 0.093,-0.2239 0.1445,-0.4694 0.1445,-0.7248 0,-0.2548 -0.0515,-0.4997 -0.1445,-0.7234 -0.0961,-0.231 -0.2379,-0.4402 -0.4127,-0.6148 -0.1744,-0.1738 -0.3833,-0.3149 -0.6137,-0.4105 -0.2234,-0.0929 -0.4683,-0.1443 -0.7229,-0.1443 -0.2543,0 -0.4992,0.0519 -0.7228,0.144 -0.2336,0.0964 -0.4425,0.237 -0.616,0.4105 -0.1738,0.1738 -0.3143,0.3824 -0.4107,0.6148 -0.0927,0.2234 -0.144,0.4689 -0.144,0.7237 0,0.1185 0.0116,0.237 0.0337,0.3524 0.0224,0.1176 0.0558,0.2318 0.0981,0.3396 z m 17.8293,2.1915 -4.8157,6.4213 c 1.7268,-2.3856 3.4438,-4.7061 4.8157,-6.4213 z m 18.4774,-44.9807 0.0198,-0.0281 h 15.2847 l -20.8272,27.165 -0.1353,-0.0221 c -0.0745,-0.009 -0.1499,-0.0139 -0.2242,-0.0139 -0.2548,0 -0.5003,0.0513 -0.7237,0.144 -0.2324,0.0963 -0.441,0.2369 -0.6148,0.4107 -0.1735,0.1735 -0.3141,0.3824 -0.4105,0.6148 -0.0921,0.2248 -0.144,0.4697 -0.144,0.724 0,0.2543 0.0516,0.4989 0.144,0.7228 0.0964,0.2336 0.237,0.4423 0.4105,0.6157 0.1738,0.1738 0.3824,0.3144 0.6148,0.4108 0.2234,0.0927 0.4689,0.144 0.7237,0.144 0.2546,0 0.4995,-0.0513 0.7231,-0.144 0.2336,-0.0964 0.4428,-0.2376 0.616,-0.4108 l 0.0235,-0.0275 c 0.167,-0.172 0.3022,-0.3778 0.3935,-0.6046 0.0887,-0.2185 0.1377,-0.4575 0.1377,-0.7064 0,-0.1162 -0.0113,-0.2327 -0.0331,-0.3469 -0.0216,-0.1151 -0.0547,-0.2285 -0.0967,-0.3371 l -0.0635,-0.1454 22.1429,-28.8828 c 0.1043,-0.1369 0.1434,-0.3038 0.1224,-0.4612 -0.021,-0.1579 -0.1034,-0.3087 -0.2395,-0.4127 -0.0559,-0.0428 -0.1168,-0.0745 -0.178,-0.0955 -0.0681,-0.0219 -0.1355,-0.0332 -0.2004,-0.0332 h -17.4507 c -0.0451,-0.0898 -0.0975,-0.1763 -0.1562,-0.2577 -0.0935,-0.1298 -0.2021,-0.2469 -0.3223,-0.3478 -0.1669,-0.1397 -0.3594,-0.2523 -0.5689,-0.3285 -0.2027,-0.0734 -0.4206,-0.114 -0.646,-0.114 -0.2548,0 -0.5003,0.0513 -0.7237,0.144 -0.2324,0.0964 -0.4411,0.237 -0.6148,0.4108 l -0.0238,0.0275 c -0.1673,0.1732 -0.3022,0.3787 -0.3935,0.6043 -0.0881,0.2203 -0.1372,0.459 -0.1372,0.7073 0,0.2545 0.0513,0.4994 0.1443,0.7228 0.0955,0.2305 0.2367,0.4394 0.4105,0.6137 0.1746,0.1749 0.3838,0.3166 0.6148,0.4127 0.2237,0.093 0.4686,0.1446 0.7234,0.1446 0.2251,0 0.4428,-0.0405 0.6452,-0.1142 0.2094,-0.076 0.4025,-0.1883 0.5697,-0.3283 0.0978,-0.0822 0.1882,-0.1752 0.2676,-0.275 0.0746,-0.0955 0.1409,-0.197 0.1959,-0.3018 z m -23.01,46.3164 c 0.0604,-0.1009 0.1086,-0.2092 0.1418,-0.3229 0.0354,-0.1208 0.0547,-0.2463 0.0547,-0.3733 0,-0.1213 -0.0182,-0.2432 -0.0522,-0.3617 -0.0326,-0.1194 -0.0833,-0.2339 -0.1477,-0.3402 l -0.0544,-0.0836 6.7708,-8.7936 15.6632,21.3105 c 0.0601,0.0817 0.1372,0.1452 0.2219,0.1877 0.0873,0.0439 0.1848,0.0669 0.2804,0.0672 l 4.7256,8e-4 c 0.0454,0.0896 0.0975,0.1761 0.1562,0.2574 0.0933,0.1296 0.2018,0.2472 0.322,0.3475 0.167,0.1398 0.3594,0.2523 0.5689,0.3283 0.2027,0.0734 0.4207,0.1139 0.6458,0.1139 0.2542,0 0.4991,-0.0518 0.7228,-0.144 0.2336,-0.0963 0.4422,-0.2369 0.6157,-0.4104 0.1737,-0.1738 0.3143,-0.3824 0.4107,-0.6148 0.0927,-0.2234 0.144,-0.4689 0.144,-0.7237 0,-0.2546 -0.0513,-0.4995 -0.144,-0.7231 -0.0964,-0.2336 -0.2372,-0.4425 -0.4107,-0.616 l -0.0275,-0.0235 c -0.1721,-0.167 -0.3779,-0.3022 -0.6047,-0.3935 -0.2185,-0.0887 -0.4575,-0.1378 -0.7063,-0.1378 -0.2251,0 -0.4434,0.0406 -0.6458,0.1143 -0.2095,0.0759 -0.4019,0.1885 -0.5689,0.3282 -0.1219,0.1018 -0.231,0.2191 -0.3229,0.3473 -0.0578,0.0819 -0.1099,0.1678 -0.155,0.2574 h -4.1865 l -16.1813,-22.015 c -0.1018,-0.1392 -0.2511,-0.2245 -0.4087,-0.2483 -0.1577,-0.023 -0.3249,0.0127 -0.4629,0.1136 -0.0749,0.0632 -0.0811,0.0712 -0.1438,0.1466 l -7.6453,9.93 -0.1383,-0.0224 c -0.0754,-0.009 -0.1511,-0.0141 -0.2265,-0.0141 -0.2546,0 -0.4992,0.0513 -0.7228,0.144 -0.2336,0.0963 -0.4422,0.2369 -0.616,0.4107 -0.1735,0.1735 -0.3141,0.3824 -0.4105,0.6148 -0.0927,0.2248 -0.144,0.4697 -0.144,0.7243 0,0.2548 0.0513,0.5003 0.144,0.7237 0.0964,0.2324 0.237,0.441 0.4108,0.6148 0.3416,0.3416 0.8158,0.5545 1.3385,0.5545 0.2543,0 0.4992,-0.0513 0.7228,-0.144 0.2336,-0.0967 0.4428,-0.2376 0.6157,-0.4105 l 0.0238,-0.0275 c 0.0981,-0.1012 0.1857,-0.2149 0.2591,-0.3373 0.0675,-0.1103 0.1239,-0.2302 0.1675,-0.3563 z m 24.6124,-6.7224 c 0.0474,-0.0938 0.0848,-0.1933 0.1106,-0.2954 0.0275,-0.1091 0.0419,-0.2216 0.0419,-0.3353 0,-0.2015 -0.0445,-0.3954 -0.125,-0.5735 -0.0782,-0.1729 -0.1925,-0.3322 -0.3348,-0.4711 l -0.0759,-0.0935 -0.093,-0.1015 c -0.1752,-0.174 -0.3841,-0.3155 -0.6148,-0.4116 -0.2237,-0.093 -0.4686,-0.1446 -0.7234,-0.1446 -0.254,0 -0.4987,0.0516 -0.7223,0.1443 -0.2316,0.0958 -0.4402,0.237 -0.6146,0.4113 -0.1751,0.1741 -0.3163,0.3827 -0.4124,0.6137 -0.0927,0.2248 -0.1443,0.47 -0.1443,0.7246 0,0.2551 0.0513,0.5003 0.1443,0.7239 0.0969,0.2333 0.2378,0.4422 0.4105,0.6149 l 0.0275,0.0238 c 0.1729,0.1672 0.3784,0.3019 0.6054,0.3934 0.2189,0.0882 0.4575,0.1372 0.7059,0.1372 0.0657,0 0.1352,-0.004 0.2063,-0.0122 l 0.091,-0.0127 14.5973,19.8527 h -16.77 c -0.0448,-0.0893 -0.097,-0.1752 -0.1554,-0.2562 -0.0913,-0.129 -0.2007,-0.2464 -0.3226,-0.3487 -0.1666,-0.1397 -0.3591,-0.252 -0.5686,-0.3285 -0.2027,-0.0735 -0.4207,-0.114 -0.6457,-0.114 -0.2546,0 -0.4995,0.0513 -0.7231,0.144 -0.2336,0.0964 -0.4425,0.2373 -0.616,0.4108 -0.1732,0.1731 -0.3144,0.3823 -0.4108,0.6148 -0.0926,0.2248 -0.144,0.4697 -0.144,0.7242 0,0.2552 0.0514,0.5004 0.1443,0.724 0.097,0.2333 0.2379,0.4422 0.4105,0.6148 l 0.0275,0.0239 c 0.1732,0.1672 0.3787,0.3021 0.6043,0.3934 0.2203,0.0882 0.459,0.1372 0.7073,0.1372 0.2248,0 0.4427,-0.0405 0.6451,-0.114 0.2095,-0.0762 0.4023,-0.1887 0.5692,-0.3285 0.1199,-0.1006 0.2285,-0.218 0.3218,-0.3475 0.0586,-0.0814 0.1108,-0.1675 0.1559,-0.2571 h 18.8784 c 0.1712,0 0.3274,-0.07 0.4408,-0.1831 0.1143,-0.1146 0.1843,-0.2707 0.1843,-0.442 0,-0.0734 -0.0136,-0.1457 -0.038,-0.2126 -0.025,-0.0677 -0.0601,-0.1292 -0.1032,-0.1819 L 315.1117,339.95 c 0.0451,-0.0621 0.1168,-0.2659 0.1434,-0.3518 z m 6.9818,10.4632 c 2.15,2.8038 4.2737,5.6356 6.0548,8.2347 z m -39.4694,-51.7773 -19.6948,-3e-4 c -0.1712,-8e-4 -0.3274,0.0692 -0.4408,0.1823 -0.1142,0.1145 -0.1842,0.2707 -0.1842,0.4419 0,0.0748 0.0147,0.1491 0.0405,0.2188 0.0252,0.0681 0.0621,0.1301 0.108,0.1843 l 18.3801,24.0117 -0.0595,0.1392 c -0.0397,0.1057 -0.0712,0.2163 -0.0919,0.3299 -0.0206,0.1131 -0.0317,0.2268 -0.0317,0.3396 0,0.2549 0.0513,0.5003 0.144,0.7237 0.0964,0.2325 0.237,0.4411 0.4107,0.6148 0.1735,0.1735 0.3821,0.3141 0.6146,0.4105 0.2248,0.0921 0.4697,0.144 0.724,0.144 0.2539,0 0.4994,-0.0513 0.7228,-0.144 0.2321,-0.0961 0.4411,-0.237 0.6145,-0.4105 0.1747,-0.1751 0.3161,-0.3838 0.4116,-0.6142 0.093,-0.2237 0.1446,-0.4689 0.1446,-0.7243 0,-0.2548 -0.0513,-0.4997 -0.1443,-0.7231 -0.0955,-0.2304 -0.2367,-0.4394 -0.4104,-0.6137 -0.1747,-0.1755 -0.3833,-0.3166 -0.6143,-0.4127 -0.2239,-0.093 -0.4691,-0.1446 -0.7245,-0.1446 -0.0777,0 -0.1559,0.005 -0.2322,0.0145 l -0.1508,0.0252 -17.0717,-22.301 h 17.013 l 14.6364,18.8172 c 0.1066,0.1361 0.2583,0.2169 0.4162,0.2364 0.1576,0.0196 0.3245,-0.0207 0.4603,-0.1264 l 0.0694,-0.0635 0.0553,-0.0669 7.4566,-9.8424 0.1139,0.017 c 0.0734,0.008 0.146,0.0127 0.2163,0.0127 0.254,0 0.4992,-0.0513 0.7225,-0.144 0.2308,-0.0955 0.4391,-0.2367 0.6135,-0.4104 0.1751,-0.1741 0.3169,-0.3833 0.4124,-0.614 0.093,-0.2237 0.1446,-0.4689 0.1446,-0.7243 0,-0.2542 -0.0519,-0.4992 -0.144,-0.7228 -0.0964,-0.2336 -0.237,-0.4425 -0.4105,-0.616 l -0.0275,-0.0235 c -0.172,-0.167 -0.3778,-0.3022 -0.6046,-0.3935 -0.2186,-0.0887 -0.4575,-0.1377 -0.7064,-0.1377 -0.2546,0 -0.4995,0.0513 -0.7231,0.144 -0.2336,0.0964 -0.4425,0.2372 -0.616,0.4107 l -0.0235,0.0275 c -0.1673,0.1724 -0.3025,0.3784 -0.394,0.6055 -0.0882,0.2188 -0.1372,0.4575 -0.1372,0.7058 0,0.1194 0.0122,0.2387 0.0346,0.3552 0.0226,0.1174 0.0569,0.233 0.1009,0.3436 l 0.0703,0.1564 -6.6175,8.735 -14.1032,-18.1329 c -0.0604,-0.0766 -0.1361,-0.1364 -0.2186,-0.1769 -0.0859,-0.042 -0.1805,-0.0635 -0.2744,-0.0638 z m -8.8251,15.4395 c -3.3123,-4.1106 -6.7084,-8.3954 -9.1987,-12.0172 z m 17.773,2.8573 c 0,-0.2543 -0.0519,-0.4992 -0.144,-0.7229 -0.0964,-0.2335 -0.237,-0.4424 -0.4105,-0.6159 l -0.0275,-0.0238 c -0.1729,-0.167 -0.3787,-0.3022 -0.6055,-0.3935 -0.2191,-0.0881 -0.458,-0.1372 -0.7064,-0.1372 -0.0756,0 -0.1559,0.006 -0.2386,0.0165 -0.061,0.008 -0.1211,0.019 -0.1803,0.0323 l -9.2497,-11.4616 c -0.0596,-0.074 -0.1344,-0.1316 -0.2166,-0.171 -0.0845,-0.0405 -0.1769,-0.0612 -0.2685,-0.0615 l -6.6359,-0.001 c -0.1712,-9e-4 -0.3274,0.0692 -0.4408,0.1823 -0.1142,0.1145 -0.1842,0.2707 -0.1842,0.4419 0,0.074 0.0136,0.1468 0.0383,0.2143 0.0235,0.0643 0.0584,0.125 0.1006,0.1774 l 19.7915,26.1689 -19.2458,26.3951 c -0.1009,0.1386 -0.1361,0.3056 -0.1117,0.4623 0.0244,0.1574 0.11,0.3062 0.2486,0.4071 0.0553,0.04 0.1139,0.0697 0.1735,0.0893 0.0649,0.0207 0.1301,0.0309 0.1927,0.0309 l 3.8872,8e-4 c 0.045,0.0896 0.0972,0.1758 0.1559,0.2574 0.0932,0.1296 0.2018,0.2472 0.322,0.3475 0.1669,0.1398 0.36,0.2523 0.5692,0.3283 0.2024,0.0734 0.4204,0.1139 0.6454,0.1139 0.254,0 0.4992,-0.0513 0.7226,-0.144 0.2307,-0.0955 0.4391,-0.2366 0.6134,-0.4104 0.1757,-0.176 0.3169,-0.3847 0.4127,-0.6154 0.093,-0.2237 0.1443,-0.4683 0.1443,-0.7231 0,-0.254 -0.0513,-0.4984 -0.144,-0.722 -0.0955,-0.2319 -0.2367,-0.4402 -0.4104,-0.6146 -0.1747,-0.1754 -0.3836,-0.3172 -0.6143,-0.4127 -0.2237,-0.093 -0.4689,-0.1446 -0.7243,-0.1446 -0.2253,0 -0.4433,0.0406 -0.6457,0.1143 -0.2095,0.0759 -0.402,0.1885 -0.5689,0.3282 -0.1202,0.1004 -0.2288,0.218 -0.322,0.3476 -0.059,0.0807 -0.1109,0.1666 -0.1562,0.2571 h -1.7901 l 18.4765,-25.3401 c 0.0816,-0.1119 0.1205,-0.2432 0.1193,-0.371 -10e-4,-0.1313 -0.0445,-0.2628 -0.1261,-0.3702 l -18.9845,-25.1051 h 3.9821 l 8.9363,11.0733 -0.0496,0.121 c -0.0372,0.1009 -0.0667,0.2095 -0.0868,0.3218 -0.0201,0.1088 -0.0303,0.2202 -0.0303,0.3322 0,0.2542 0.0513,0.4992 0.144,0.7228 0.0966,0.2336 0.2375,0.4428 0.4104,0.6157 l 0.0275,0.0238 c 0.1729,0.1673 0.3785,0.3019 0.6055,0.3935 0.2189,0.0881 0.4575,0.1372 0.7058,0.1372 0.2546,0 0.4995,-0.0513 0.7232,-0.144 0.2338,-0.0967 0.443,-0.2376 0.6159,-0.4105 l 0.0236,-0.0275 c 0.1675,-0.1726 0.3024,-0.3784 0.394,-0.6055 0.0881,-0.2185 0.1372,-0.4572 0.1372,-0.7055 z m -6.2686,4.1201 c -3.9577,-4.9563 -8.1391,-10.256 -10.9556,-14.4859 z m 36.3861,-15.5976 c 0,-0.2543 -0.0513,-0.4992 -0.1443,-0.7225 -0.0955,-0.2305 -0.2367,-0.4391 -0.4104,-0.6135 -0.1761,-0.1757 -0.3853,-0.3172 -0.6157,-0.413 -0.2237,-0.093 -0.4683,-0.1443 -0.7228,-0.1443 -0.2546,0 -0.4995,0.0513 -0.7229,0.144 -0.2307,0.0956 -0.4391,0.2367 -0.6134,0.4105 -0.1755,0.1746 -0.3166,0.3832 -0.4127,0.6143 -0.093,0.2239 -0.1446,0.4691 -0.1446,0.7245 0,0.1168 0.0116,0.2341 0.0332,0.3492 0.0218,0.116 0.055,0.2296 0.0972,0.3385 l 0.0652,0.148 -18.1006,23.784 c -0.0842,0.1103 -0.1262,0.241 -0.1279,0.3705 -10e-4,0.1313 0.0391,0.2639 0.1188,0.3736 l 12.094,16.6439 -0.0612,0.1455 c -0.0383,0.1051 -0.0686,0.2148 -0.0887,0.3254 -0.0204,0.1117 -0.0312,0.2239 -0.0312,0.3336 0,0.2551 0.0513,0.5003 0.1443,0.724 0.0969,0.2333 0.2378,0.4422 0.4104,0.6148 0.1735,0.1735 0.3824,0.3141 0.6149,0.4105 0.225,0.0924 0.4697,0.144 0.7239,0.144 0.2543,0 0.4989,-0.0513 0.7226,-0.144 0.2336,-0.0964 0.4422,-0.237 0.6157,-0.4105 0.1734,-0.1735 0.3143,-0.3824 0.4104,-0.6145 0.0927,-0.2251 0.144,-0.4694 0.144,-0.7243 0,-0.2545 -0.0513,-0.4994 -0.144,-0.7231 -0.0966,-0.2336 -0.2375,-0.4431 -0.4104,-0.616 l -0.0275,-0.0235 c -0.1727,-0.1675 -0.3785,-0.3027 -0.6041,-0.394 -0.22,-0.0882 -0.4586,-0.1372 -0.7067,-0.1372 -0.0745,0 -0.1542,0.006 -0.2364,0.0162 l -0.1477,0.0252 -11.5889,-15.9475 17.6211,-23.1536 0.1411,0.0224 c 0.0729,0.008 0.1437,0.0127 0.2121,0.0127 0.2539,0 0.4983,-0.0516 0.7219,-0.1443 0.2316,-0.0958 0.4403,-0.2369 0.6146,-0.4113 0.1752,-0.174 0.3163,-0.3826 0.4124,-0.6137 0.0927,-0.2248 0.1443,-0.4699 0.1443,-0.7245 z m -14.2707,9.8459 c 0,-0.2549 -0.0513,-0.4995 -0.144,-0.7229 -0.0956,-0.2307 -0.2367,-0.4391 -0.4105,-0.6134 -0.1732,-0.1743 -0.3821,-0.3158 -0.6145,-0.4121 -0.2234,-0.0933 -0.4686,-0.1449 -0.724,-0.1449 -0.254,0 -0.4983,0.0513 -0.722,0.144 -0.2319,0.0955 -0.4402,0.2367 -0.6145,0.4105 -0.1755,0.1746 -0.3172,0.3835 -0.4128,0.6142 -0.0929,0.224 -0.1445,0.4692 -0.1445,0.7246 0,0.1167 0.0113,0.2341 0.0331,0.3495 0.0221,0.1165 0.055,0.2299 0.0973,0.3379 l 0.0649,0.1459 -5.4692,7.17 -0.1329,-0.0215 c -0.074,-0.009 -0.1486,-0.0139 -0.2223,-0.0139 -0.2542,0 -0.4989,0.0513 -0.7222,0.1442 -0.2305,0.0956 -0.4394,0.2365 -0.614,0.4108 l -0.003,0.002 c -0.1741,0.1754 -0.3147,0.3843 -0.4102,0.6145 -0.0927,0.2234 -0.144,0.4677 -0.144,0.722 0,0.2545 0.0513,0.4995 0.144,0.7231 0.0964,0.2336 0.2373,0.4425 0.4107,0.616 0.1732,0.1732 0.3824,0.3143 0.6149,0.4107 0.2248,0.0927 0.4697,0.144 0.7242,0.144 0.254,0 0.4984,-0.0516 0.722,-0.1443 0.2316,-0.0958 0.4402,-0.2369 0.6146,-0.4113 0.1751,-0.174 0.3163,-0.3826 0.4124,-0.6137 0.0927,-0.2248 0.1443,-0.47 0.1443,-0.7245 0,-0.1171 -0.0116,-0.2344 -0.0332,-0.3492 -0.0221,-0.1168 -0.055,-0.2308 -0.0972,-0.3385 l -0.0649,-0.1463 5.47,-7.1696 0.1321,0.0209 c 0.0743,0.009 0.1488,0.0139 0.2228,0.0139 0.254,0 0.4986,-0.0516 0.7223,-0.1442 0.2313,-0.0959 0.4399,-0.2367 0.6142,-0.4111 0.1755,-0.1749 0.3164,-0.3829 0.4122,-0.6134 0.0927,-0.2248 0.1443,-0.4697 0.1443,-0.7242" /><path
         id="path20"
         style="fill:#3f4096;fill-opacity:1;fill-rule:nonzero;stroke:none"
         d="m 249.3323,233.4098 11.0052,-10.4125 0.819,7.3752 -0.1089,0.0975 c -0.0439,0.044 -0.0881,0.095 -0.1307,0.1508 l -0.0501,0.0698 z m 48.1034,-69.4057 h -0.25 v 0.021 c -0.1114,0.019 -0.2191,0.0504 -0.3212,0.0929 -0.184,0.0766 -0.3489,0.1877 -0.4847,0.3235 l -0.025,0.0283 c -0.053,0.0559 -0.1012,0.1143 -0.142,0.1732 l -0.0572,0.0896 -8.5488,2.3051 -0.1377,-0.0269 c -0.0709,-0.0102 -0.1426,-0.0156 -0.2143,-0.0156 -0.2004,0 -0.3935,0.0405 -0.5701,0.1137 -0.1842,0.0762 -0.3495,0.1874 -0.4856,0.3234 l -0.0286,0.0318 c -0.1278,0.1357 -0.231,0.2956 -0.3016,0.4711 -0.0686,0.1718 -0.1069,0.3583 -0.1069,0.5522 0,0.2012 0.0406,0.3948 0.1137,0.5712 0.0766,0.1839 0.1877,0.3489 0.3234,0.4847 l 0.0318,0.0286 c 0.0989,0.093 0.2115,0.1741 0.3336,0.2378 0.0899,0.0477 0.1866,0.0865 0.288,0.1148 l 8.9555,13.0901 -12.7905,2.0895 c -0.1352,-0.1333 -0.2962,-0.241 -0.4728,-0.3144 -0.1766,-0.0734 -0.3699,-0.1142 -0.5712,-0.1142 -0.125,0 -0.2494,0.0167 -0.3704,0.0479 -0.074,0.0187 -0.1455,0.0433 -0.2146,0.0734 l -5.8845,-3.5773 c -0.0277,-0.114 -0.0683,-0.222 -0.119,-0.3218 -0.0732,-0.1406 -0.1661,-0.2681 -0.2747,-0.377 -0.0913,-0.0861 -0.1434,-0.1287 -0.2463,-0.1998 l 8e-4,-6.3618 0.0655,-0.0448 c 0.0652,-0.0473 0.1261,-0.0992 0.18,-0.1531 0.1361,-0.136 0.2472,-0.3013 0.3234,-0.4855 0.0732,-0.1766 0.1137,-0.3697 0.1137,-0.5701 0,-0.0879 -0.008,-0.1752 -0.023,-0.2602 l -0.0226,-0.1055 2.359,-2.6282 0.1207,0.005 c 0.2004,0 0.3937,-0.0406 0.5703,-0.1137 0.1846,-0.0762 0.3498,-0.1874 0.4859,-0.3234 l 0.1069,-0.1205 h 0.4867 l 0.1054,0.1179 c 0.1367,0.1375 0.3016,0.2495 0.4845,0.3252 0.176,0.0739 0.3696,0.1145 0.5711,0.1145 0.2005,0 0.3935,-0.0406 0.5701,-0.1137 0.1845,-0.0762 0.3498,-0.1874 0.4859,-0.3234 0.136,-0.1361 0.2471,-0.3014 0.3234,-0.4856 0.0731,-0.1766 0.1137,-0.3696 0.1137,-0.5701 0,-0.0878 -0.008,-0.1754 -0.023,-0.261 l -0.0247,-0.1111 2.9787,-3.5 0.005,6e-4 c 0.0553,0.006 0.1091,0.009 0.1599,0.009 0.2006,0 0.3937,-0.0408 0.5703,-0.1142 0.1814,-0.0754 0.3464,-0.1871 0.4844,-0.3251 0.0763,-0.0751 0.1446,-0.1605 0.2036,-0.2532 0.0309,-0.0499 0.0598,-0.1014 0.0856,-0.1547 l 9.6035,-1.7674 0.0513,0.0552 c 0.1366,0.1367 0.3013,0.2478 0.4847,0.3238 0.1018,0.0422 0.2095,0.0737 0.3209,0.0927 v 0.0209 h 0.5 v -0.0209 c 0.1114,-0.019 0.2191,-0.0505 0.3209,-0.0927 0.1834,-0.076 0.3481,-0.1871 0.4847,-0.3238 l 0.0513,-0.0552 9.6035,1.7674 c 0.0258,0.0533 0.0547,0.1048 0.0862,0.1545 0.0584,0.0929 0.1267,0.1783 0.2024,0.2539 0.1386,0.1375 0.3036,0.2492 0.485,0.3246 0.1766,0.0734 0.3696,0.1142 0.5703,0.1142 0.0508,0 0.1046,-0.003 0.1599,-0.009 l 0.005,-9e-4 2.9786,3.5 -0.0238,0.1102 c -0.0158,0.0865 -0.0238,0.1741 -0.0238,0.2619 0,0.2005 0.0406,0.3935 0.1137,0.5701 0.0762,0.1842 0.1874,0.3495 0.3234,0.4856 0.1361,0.136 0.3013,0.2472 0.4859,0.3234 0.1766,0.0731 0.3696,0.1137 0.57,0.1137 0.2016,0 0.3952,-0.0406 0.5715,-0.1143 0.1825,-0.0759 0.3475,-0.1879 0.4841,-0.3254 l 0.1055,-0.1179 h 0.4867 l 0.1069,0.1205 c 0.136,0.136 0.3013,0.2472 0.4858,0.3234 0.1766,0.0731 0.3699,0.1137 0.5704,0.1137 l 0.1207,-0.005 2.359,2.6282 -0.0227,0.1055 c -0.015,0.085 -0.0229,0.1723 -0.0229,0.2602 0,0.2004 0.0405,0.3935 0.1136,0.5701 0.0763,0.1842 0.1874,0.3495 0.3235,0.4855 0.0538,0.0539 0.1148,0.1058 0.18,0.1531 l 0.0655,0.0448 8e-4,6.3618 c -0.1029,0.0711 -0.1551,0.1137 -0.2463,0.1998 -0.1086,0.1089 -0.2016,0.2364 -0.2736,0.377 -0.0518,0.0998 -0.0924,0.2078 -0.1202,0.3218 l -5.8844,3.5773 c -0.0692,-0.0301 -0.1406,-0.0547 -0.2135,-0.0734 -0.1221,-0.0312 -0.2466,-0.0479 -0.3716,-0.0479 -0.2012,0 -0.3946,0.0408 -0.5712,0.1142 -0.1766,0.0734 -0.3376,0.1811 -0.4728,0.3144 l -12.7905,-2.0895 8.9555,-13.0901 c 0.1015,-0.0283 0.1982,-0.0671 0.2883,-0.1145 0.1219,-0.064 0.2344,-0.1451 0.3331,-0.2384 l 0.032,-0.0283 c 0.1358,-0.1358 0.2469,-0.3008 0.3232,-0.485 0.0734,-0.1761 0.1139,-0.3697 0.1139,-0.5709 0,-0.1939 -0.0382,-0.3804 -0.1068,-0.5522 -0.0706,-0.1755 -0.1738,-0.3354 -0.3019,-0.4709 l -0.0284,-0.032 c -0.136,-0.136 -0.3013,-0.2472 -0.4856,-0.3234 -0.1766,-0.0732 -0.3696,-0.1137 -0.57,-0.1137 -0.0717,0 -0.1434,0.005 -0.2143,0.0156 l -0.1378,0.0269 -8.5487,-2.3051 -0.0575,-0.0893 c -0.0406,-0.0592 -0.0888,-0.1176 -0.1418,-0.1735 l -0.0249,-0.0283 c -0.1358,-0.1358 -0.3008,-0.2469 -0.485,-0.3232 -0.1018,-0.0428 -0.2095,-0.0742 -0.3209,-0.0932 v -0.021 h -0.25 z m 0.25,-4.7299 v -0.021 h -0.5 v 0.021 c -0.1114,0.019 -0.2191,0.0505 -0.3212,0.093 -0.184,0.0765 -0.3489,0.1876 -0.4847,0.3234 l -0.025,0.0284 c -0.0496,0.0524 -0.0958,0.1082 -0.1369,0.1658 l -0.0479,0.0723 -9.8818,1.7285 c -0.1117,-0.0859 -0.2365,-0.1564 -0.37,-0.2083 -0.1681,-0.0652 -0.3492,-0.1012 -0.5368,-0.1012 -0.2005,0 -0.3938,0.0405 -0.5704,0.1137 -0.1845,0.0762 -0.3498,0.1873 -0.4858,0.3234 l -0.0287,0.0317 c -0.1278,0.1358 -0.2313,0.2957 -0.3016,0.4709 -0.0689,0.1715 -0.1071,0.3591 -0.1071,0.5525 l 0.006,0.1332 -3.1759,3.7315 c -0.1741,0.008 -0.3416,0.0476 -0.4961,0.1117 -0.1834,0.076 -0.3481,0.1871 -0.4847,0.3237 l -0.0907,0.1015 c -0.4226,0 -0.3881,0.1001 -0.6403,-0.1304 -0.1358,-0.1278 -0.2957,-0.231 -0.4714,-0.3016 -0.173,-0.0686 -0.3598,-0.1069 -0.5531,-0.1069 -0.2007,0 -0.3943,0.0406 -0.5706,0.1137 -0.1834,0.076 -0.3481,0.1871 -0.4847,0.3237 l -0.0287,0.0318 c -0.1278,0.1357 -0.2313,0.2959 -0.3016,0.4711 -0.0688,0.1718 -0.1071,0.3586 -0.1071,0.5524 l 0.0116,0.1826 -2.5206,2.8088 c -0.1734,0.009 -0.3407,0.0477 -0.4952,0.1117 -0.1842,0.0763 -0.3495,0.1874 -0.4855,0.3235 l -0.0287,0.0317 c -0.1278,0.1355 -0.2313,0.2954 -0.3016,0.4709 -0.0686,0.1717 -0.1068,0.3585 -0.1068,0.5527 0,0.2004 0.0405,0.3935 0.1136,0.5701 0.0726,0.1754 0.1763,0.333 0.3033,0.4651 l -10e-4,6.7992 c -0.1264,0.1315 -0.2299,0.2891 -0.3022,0.4637 -0.0731,0.1766 -0.1136,0.3697 -0.1136,0.5701 0,0.1602 0.0257,0.3155 0.0737,0.462 0.0362,0.112 0.0858,0.2189 0.1465,0.3178 l -1.7478,7.181 c -0.0576,0.0269 -0.1129,0.0573 -0.1653,0.0904 -0.0916,0.0581 -0.1772,0.1273 -0.2545,0.2044 -0.1384,0.1375 -0.2501,0.3022 -0.3257,0.4842 -0.0735,0.1769 -0.1143,0.3699 -0.1143,0.5714 0,0.1021 0.0114,0.205 0.0323,0.3053 0.0125,0.0598 0.0284,0.1182 0.0477,0.1749 l -8.36,15.5121 c -0.0924,0.0306 -0.1811,0.0705 -0.265,0.1176 -0.1211,0.0683 -0.2305,0.1511 -0.3237,0.2443 l -0.025,0.0284 c -0.1295,0.1363 -0.2344,0.2982 -0.3053,0.4751 -0.0686,0.1729 -0.1068,0.3597 -0.1068,0.5527 0,0.1874 0.036,0.3688 0.1006,0.5363 0.053,0.137 0.1258,0.2642 0.2146,0.3782 l -0.9519,10.5627 -0.1097,0.055 c -0.0524,0.0292 -0.1032,0.0613 -0.1514,0.0961 l -15.8703,-2.0219 -0.0471,-0.0508 c -0.136,-0.136 -0.301,-0.2472 -0.4855,-0.3234 -0.1766,-0.0731 -0.3697,-0.1137 -0.5701,-0.1137 -0.2004,0 -0.3934,0.0406 -0.57,0.1137 -0.1843,0.076 -0.3493,0.1871 -0.4859,0.3237 -0.1267,0.1267 -0.2316,0.2789 -0.307,0.4482 -0.0572,0.1278 -0.0972,0.2661 -0.1165,0.4101 l -11.5339,8.9482 -0.0893,-0.0162 c -0.0728,-0.0108 -0.1474,-0.0167 -0.2219,-0.0167 -0.2007,0 -0.3946,0.0405 -0.5709,0.1137 -0.184,0.0765 -0.349,0.1876 -0.4847,0.3234 l -0.025,0.0283 c -0.1298,0.1367 -0.2344,0.298 -0.3053,0.4748 -0.0686,0.1718 -0.1068,0.3583 -0.1068,0.5522 0,0.2013 0.0405,0.3949 0.1136,0.5712 0.0766,0.184 0.1877,0.3489 0.3235,0.4847 0.1357,0.1358 0.3007,0.2469 0.485,0.3232 0.1763,0.0737 0.3699,0.1142 0.5706,0.1142 0.18,0 0.354,-0.0326 0.515,-0.0915 0.1174,-0.0434 0.2291,-0.1021 0.3323,-0.1735 l 13.526,5.0145 -15.7101,10.1126 c -0.0511,-0.0162 -0.1027,-0.0298 -0.1548,-0.04 -0.095,-0.019 -0.1936,-0.0289 -0.2937,-0.0289 -0.2004,0 -0.3934,0.0405 -0.57,0.1136 -0.1843,0.0763 -0.3495,0.1874 -0.4856,0.3235 l -0.0286,0.0317 c -0.1279,0.1358 -0.2311,0.2957 -0.3016,0.4711 -0.0686,0.173 -0.1069,0.3598 -0.1069,0.5528 0,0.1576 0.0258,0.3118 0.0723,0.4572 0.0351,0.1092 0.0828,0.2132 0.1409,0.3101 l -4.5057,16.5867 -0.1361,0.0819 c -0.0802,0.0542 -0.1545,0.1157 -0.2199,0.1811 l -0.025,0.0284 c -0.1295,0.1363 -0.2344,0.2982 -0.3053,0.4751 -0.0686,0.1729 -0.1068,0.3597 -0.1068,0.5527 0,0.2007 0.0405,0.394 0.1136,0.5704 0.076,0.1834 0.1874,0.3483 0.3235,0.4844 0.1031,0.1032 0.2228,0.1922 0.354,0.2619 0.0919,0.0479 0.1885,0.0876 0.2883,0.1168 2.3873,4.8932 5.233,10.7093 8.0782,16.5249 l 3.655,7.4721 c -0.0423,0.0828 -0.0774,0.1701 -0.1041,0.2611 -0.0394,0.134 -0.0609,0.2761 -0.0609,0.4201 0,0.2001 0.0405,0.3934 0.1136,0.57 0.076,0.1845 0.1871,0.3492 0.3238,0.4859 0.1366,0.1366 0.3013,0.2477 0.4847,0.3237 0.1777,0.0731 0.371,0.1136 0.5712,0.1136 0.2004,0 0.3934,-0.0408 0.5697,-0.1139 0.1812,-0.0751 0.3461,-0.1868 0.4833,-0.3243 0.1384,-0.1378 0.2498,-0.3022 0.3252,-0.4836 0.0734,-0.1769 0.1139,-0.3702 0.1139,-0.5714 0,-0.2007 -0.0405,-0.3946 -0.1136,-0.5709 -0.0766,-0.184 -0.1877,-0.349 -0.3235,-0.4848 l -0.0317,-0.0286 c -0.0607,-0.0567 -0.127,-0.11 -0.1973,-0.1568 l -0.0729,-0.0456 0.6313,-22.3988 0.0646,-0.0448 c 0.065,-0.0473 0.1233,-0.0978 0.1752,-0.1497 0.1369,-0.1374 0.2486,-0.3018 0.3243,-0.4835 0.0731,-0.1778 0.114,-0.3711 0.114,-0.5715 0,-0.0876 -0.008,-0.1743 -0.0227,-0.2588 l -0.0218,-0.1018 9.6349,-10.815 0.0706,0.0133 c 0.0819,0.0131 0.1624,0.0202 0.2404,0.0202 0.2004,0 0.3937,-0.0409 0.57,-0.114 0.1812,-0.0751 0.3461,-0.1868 0.4833,-0.3243 0.0525,-0.0521 0.1024,-0.1094 0.1469,-0.1698 l 0.0453,-0.0649 21.8472,-1.2192 0.049,0.0505 c 0.137,0.1366 0.3011,0.2474 0.4828,0.3226 0.1763,0.0731 0.3693,0.1136 0.5695,0.1136 0.2007,0 0.3943,-0.0405 0.5706,-0.1136 0.1834,-0.076 0.3481,-0.1871 0.4847,-0.3238 0.0558,-0.0558 0.11,-0.1199 0.1596,-0.1893 l 0.0615,-0.0938 23.6197,-3.7837 c 0.1137,0.091 0.2412,0.1661 0.3781,0.2208 0.0973,0.0383 0.1985,0.0672 0.3028,0.0853 v 0.0213 h 0.5 v -0.0213 c 0.1043,-0.0181 0.2055,-0.047 0.3019,-0.0853 0.1378,-0.0547 0.2653,-0.1298 0.379,-0.2208 l 23.6197,3.7837 0.0615,0.0938 c 0.0496,0.0694 0.1037,0.1335 0.1596,0.1893 0.1366,0.1367 0.3013,0.2478 0.4847,0.3238 0.1763,0.0731 0.3699,0.1136 0.5706,0.1136 0.2001,0 0.3932,-0.0405 0.5695,-0.1136 0.1817,-0.0752 0.3458,-0.186 0.4827,-0.3226 l 0.0491,-0.0505 21.8471,1.2192 0.0454,0.0649 c 0.0445,0.0604 0.0944,0.1177 0.1468,0.1698 0.1372,0.1375 0.3022,0.2492 0.4833,0.3243 0.1764,0.0731 0.3697,0.114 0.5701,0.114 0.0779,0 0.1584,-0.007 0.2395,-0.0202 l 0.0715,-0.0133 9.6349,10.815 -0.0215,0.1018 c -0.0153,0.0845 -0.023,0.1712 -0.023,0.2588 0,0.2004 0.0408,0.3937 0.114,0.5703 0.0756,0.1829 0.1873,0.3473 0.3248,0.4842 0.0513,0.0524 0.1097,0.1029 0.1746,0.1502 l 0.0647,0.0448 0.6312,22.3988 -0.0728,0.0456 c -0.0703,0.0468 -0.1366,0.1001 -0.197,0.1571 l -0.0321,0.0283 c -0.1357,0.1358 -0.2469,0.3008 -0.3231,0.485 -0.0734,0.1761 -0.114,0.37 -0.114,0.5707 0,0.2012 0.0406,0.3945 0.114,0.5714 0.0754,0.1814 0.1868,0.3458 0.324,0.4825 0.1383,0.1386 0.3033,0.2503 0.4844,0.3254 0.1763,0.0731 0.3694,0.1139 0.5698,0.1139 0.2001,0 0.3934,-0.0405 0.57,-0.1136 0.1846,-0.076 0.3493,-0.1871 0.4859,-0.3237 0.1366,-0.1367 0.2478,-0.3014 0.3237,-0.4848 0.0732,-0.1777 0.1137,-0.371 0.1137,-0.5711 0,-0.144 -0.0216,-0.2861 -0.061,-0.4201 -0.0266,-0.091 -0.0618,-0.1783 -0.104,-0.2611 l 3.655,-7.4721 c 2.8451,-5.8156 5.6908,-11.6317 8.0782,-16.5249 0.0998,-0.0292 0.1964,-0.0689 0.2877,-0.1176 0.1318,-0.0689 0.2514,-0.1579 0.3546,-0.2611 0.1361,-0.1361 0.2475,-0.301 0.3234,-0.4844 0.0732,-0.1764 0.1137,-0.3697 0.1137,-0.5704 0,-0.193 -0.0383,-0.3798 -0.1069,-0.5519 -0.0708,-0.1777 -0.1757,-0.3396 -0.3052,-0.4759 l -0.025,-0.0284 c -0.0655,-0.0654 -0.1397,-0.1269 -0.22,-0.1811 l -0.136,-0.0819 -4.5057,-16.5867 c 0.0581,-0.0969 0.1057,-0.2009 0.1409,-0.3101 0.0465,-0.1454 0.0723,-0.2996 0.0723,-0.4572 0,-0.193 -0.0383,-0.3798 -0.1069,-0.5519 -0.0706,-0.1763 -0.1738,-0.3362 -0.3019,-0.4717 l -0.0283,-0.032 c -0.1361,-0.1361 -0.3014,-0.2472 -0.4856,-0.3235 -0.1766,-0.0731 -0.3696,-0.1136 -0.5701,-0.1136 -0.1,0 -0.1987,0.01 -0.2936,0.0289 -0.0522,0.0102 -0.1038,0.0238 -0.1548,0.04 l -15.7102,-10.1126 13.5261,-5.0145 c 0.1032,0.0714 0.2149,0.1301 0.3322,0.1735 0.161,0.0589 0.3351,0.0915 0.5151,0.0915 0.2007,0 0.3943,-0.0405 0.5709,-0.1139 0.184,-0.0766 0.3489,-0.1877 0.4847,-0.3235 0.1358,-0.1358 0.2469,-0.3007 0.3232,-0.485 0.0734,-0.176 0.1139,-0.3696 0.1139,-0.5709 0,-0.1939 -0.0383,-0.3804 -0.1069,-0.5522 -0.0708,-0.1768 -0.1754,-0.3381 -0.3052,-0.4748 l -0.025,-0.0283 c -0.1358,-0.1358 -0.3007,-0.2469 -0.485,-0.3232 -0.176,-0.0734 -0.3699,-0.1139 -0.5706,-0.1139 -0.0746,0 -0.1491,0.006 -0.222,0.0167 l -0.0893,0.0162 -11.5338,-8.9482 c -0.0193,-0.144 -0.0593,-0.2823 -0.1165,-0.4101 -0.0754,-0.1693 -0.1803,-0.3215 -0.307,-0.4482 -0.1367,-0.1366 -0.3016,-0.2477 -0.4848,-0.3237 -0.1777,-0.0731 -0.3707,-0.1137 -0.5711,-0.1137 -0.2005,0 -0.3935,0.0406 -0.5701,0.1137 -0.1845,0.0762 -0.3495,0.1874 -0.4856,0.3234 l -0.047,0.0508 -15.8704,2.0219 c -0.0481,-0.0348 -0.0989,-0.0669 -0.1513,-0.0961 l -0.1097,-0.055 -0.9519,-10.5627 c 0.0887,-0.114 0.1616,-0.2412 0.2143,-0.3782 0.0649,-0.1675 0.1009,-0.3489 0.1009,-0.5363 0,-0.193 -0.0383,-0.3798 -0.1069,-0.5519 -0.0708,-0.1777 -0.1757,-0.3396 -0.3052,-0.4759 l -0.025,-0.0284 c -0.0932,-0.0932 -0.2027,-0.176 -0.3237,-0.2443 -0.0839,-0.0471 -0.1726,-0.087 -0.265,-0.1176 l -8.36,-15.5121 c 0.0193,-0.0567 0.0352,-0.1151 0.0476,-0.1749 0.021,-0.1003 0.0324,-0.2032 0.0324,-0.3053 0,-0.2015 -0.0409,-0.3945 -0.1143,-0.5714 -0.0757,-0.182 -0.1874,-0.3467 -0.3257,-0.4842 -0.0774,-0.0771 -0.163,-0.1463 -0.2545,-0.2044 -0.0525,-0.0331 -0.1077,-0.0635 -0.1653,-0.0904 l -1.7478,-7.181 c 0.0606,-0.0989 0.1102,-0.2058 0.1465,-0.3178 0.0479,-0.1465 0.0737,-0.3018 0.0737,-0.462 0,-0.2004 -0.0405,-0.3935 -0.1137,-0.5701 -0.0722,-0.1746 -0.1757,-0.3322 -0.3021,-0.4637 l -10e-4,-6.7992 c 0.127,-0.1321 0.2308,-0.2897 0.3033,-0.4651 0.0732,-0.1766 0.1137,-0.3697 0.1137,-0.5701 0,-0.1942 -0.0383,-0.381 -0.1068,-0.5527 -0.0703,-0.1755 -0.1738,-0.3354 -0.3019,-0.4706 l -0.0284,-0.032 c -0.136,-0.1361 -0.3013,-0.2472 -0.4856,-0.3235 -0.1544,-0.064 -0.3217,-0.1029 -0.4952,-0.1117 l -2.5205,-2.8088 0.0116,-0.1826 c 0,-0.1938 -0.0383,-0.3806 -0.1072,-0.5524 -0.0703,-0.1752 -0.1737,-0.3354 -0.3019,-0.4709 l -0.0283,-0.032 c -0.1366,-0.1366 -0.3013,-0.2477 -0.4847,-0.3237 -0.1763,-0.0731 -0.3699,-0.1137 -0.5706,-0.1137 -0.1934,0 -0.3802,0.0383 -0.5522,0.1069 -0.1766,0.0706 -0.3365,0.1738 -0.472,0.3019 -0.2616,0.233 -0.1913,0.1301 -0.6406,0.1301 l -0.0907,-0.1015 c -0.1367,-0.1366 -0.3014,-0.2477 -0.4848,-0.3237 -0.1545,-0.0641 -0.322,-0.1032 -0.496,-0.1117 l -3.176,-3.7315 0.006,-0.1332 c 0,-0.1934 -0.0383,-0.381 -0.1072,-0.5525 -0.0703,-0.1752 -0.1737,-0.3351 -0.3018,-0.4706 l -0.0284,-0.032 c -0.1361,-0.1361 -0.3013,-0.2472 -0.4859,-0.3234 -0.1766,-0.0732 -0.3699,-0.1137 -0.5703,-0.1137 -0.1876,0 -0.3688,0.036 -0.5369,0.1012 -0.1335,0.0519 -0.2582,0.1224 -0.3699,0.2083 l -9.8818,-1.7285 -0.0471,-0.0712 c -0.042,-0.0587 -0.0882,-0.1145 -0.1378,-0.1669 l -0.0249,-0.0284 c -0.1358,-0.1358 -0.3008,-0.2469 -0.485,-0.3231 -0.1018,-0.0428 -0.2095,-0.0743 -0.3209,-0.0933 z m 0,87.7825 v -0.021 h -0.5 v 0.021 c -0.1114,0.019 -0.2191,0.0504 -0.3212,0.0929 -0.184,0.0766 -0.3489,0.1877 -0.4847,0.3235 l -0.0258,0.0295 c -0.0644,0.0674 -0.123,0.1417 -0.1738,0.2211 l -0.0683,0.1176 -23.4813,3.7766 c -0.055,-0.0513 -0.1151,-0.0992 -0.1792,-0.1434 -0.0499,-0.0343 -0.1006,-0.065 -0.1528,-0.0922 l -2.4948,-5.5244 c 0.0159,-0.0522 0.0287,-0.1055 0.0386,-0.1596 0.0125,-0.068 0.0207,-0.1363 0.0238,-0.2044 l 26.6581,-19.2673 c 0.1086,0.0841 0.2294,0.1536 0.3583,0.2055 0.0976,0.0385 0.1988,0.0674 0.3031,0.0853 v 0.0215 h 0.5 v -0.0215 c 0.1043,-0.0179 0.2055,-0.0468 0.3022,-0.0853 0.1298,-0.0519 0.2506,-0.1214 0.3591,-0.2055 l 26.6582,19.2673 c 0.003,0.0681 0.0113,0.1364 0.0238,0.2044 0.01,0.0541 0.0227,0.1074 0.0385,0.1596 l -2.4947,5.5244 c -0.0522,0.0272 -0.1029,0.0579 -0.1517,0.0913 -0.0652,0.0451 -0.1253,0.093 -0.1803,0.1443 l -23.4813,-3.7766 -0.0686,-0.1174 c -0.0505,-0.0796 -0.1092,-0.1539 -0.1732,-0.2216 l -0.0261,-0.0292 c -0.1358,-0.1358 -0.3008,-0.2469 -0.485,-0.3232 -0.1018,-0.0428 -0.2095,-0.0742 -0.3209,-0.0932 z m -0.25,-23.87 -8.25,-19.3601 0.009,-0.072 0.009,-0.1556 c 0,-0.2004 -0.0406,-0.3935 -0.1137,-0.5701 -0.0762,-0.1845 -0.1874,-0.3498 -0.3234,-0.4858 -0.0771,-0.0771 -0.1656,-0.1474 -0.2625,-0.2084 -0.0584,-0.0365 -0.1205,-0.0697 -0.1854,-0.0986 l -5.1194,-15.2175 0.0244,-0.0372 13.3835,-2.1719 c 0.106,0.0709 0.2208,0.1287 0.3421,0.1704 0.0769,0.0252 0.1557,0.0459 0.2362,0.0598 v 0.0216 h 0.5 v -0.0216 c 0.0805,-0.0139 0.1593,-0.0346 0.2358,-0.0609 0.1216,-0.0406 0.2365,-0.0984 0.3425,-0.1693 l 13.3835,2.1719 0.0243,0.0372 -5.1193,15.2175 c -0.0649,0.0289 -0.127,0.0621 -0.1854,0.0986 -0.097,0.061 -0.1854,0.1313 -0.2625,0.2084 -0.1361,0.136 -0.2472,0.3013 -0.3234,0.4858 -0.0732,0.1766 -0.1137,0.3697 -0.1137,0.5701 l 0.009,0.1556 0.009,0.072 -8.2499,19.3601 z m 0,-41.1908 -8.1221,-11.9268 6.813,1.6271 0.0777,0.1258 c 0.0533,0.078 0.1126,0.1497 0.1755,0.2126 l 0.0317,0.0287 c 0.1358,0.1278 0.2957,0.231 0.4711,0.3016 0.0976,0.0385 0.1988,0.0674 0.3031,0.0853 v 0.0215 h 0.5 v -0.0215 c 0.1043,-0.0179 0.2055,-0.0468 0.3022,-0.0853 0.1763,-0.0706 0.3362,-0.1738 0.4717,-0.3019 l 0.032,-0.0284 c 0.0629,-0.0629 0.1222,-0.1346 0.1755,-0.2126 l 0.0776,-0.1258 6.8131,-1.6271 z m 0.25,-12.4892 v -0.0213 h -0.5 v 0.0213 c -0.1109,0.019 -0.218,0.0502 -0.3198,0.0924 -0.14,0.0581 -0.2698,0.1378 -0.3849,0.2339 l -6.3992,-1.5262 6.3096,-1.7425 c 0.1344,0.1316 0.2951,0.2384 0.4734,0.3124 0.1018,0.0423 0.2095,0.0737 0.3209,0.0927 v 0.021 h 0.5 v -0.021 c 0.1114,-0.019 0.2191,-0.0504 0.3209,-0.0927 0.1783,-0.074 0.339,-0.1808 0.4734,-0.3124 l 6.3096,1.7425 -6.3992,1.5262 c -0.1151,-0.0961 -0.2449,-0.1758 -0.385,-0.2339 -0.1017,-0.0422 -0.2089,-0.0734 -0.3197,-0.0924 z m -9.7251,36.1378 7.5569,17.7329 -12.0104,-5.0334 c -0.0204,-0.0615 -0.0451,-0.1219 -0.0731,-0.18 -0.0261,-0.0539 -0.0556,-0.1069 -0.0885,-0.1576 z m -2.5472,1.5573 -3.4923,9.3549 -2.236,-3.1433 z m -6.8326,7.9129 2.1668,3.0462 -0.0321,0.07 -0.0484,0.1315 -10.3159,6.0625 0.6251,-5.8142 0.07,-0.0487 c 0.064,-0.048 0.1213,-0.0967 0.1703,-0.1457 l 0.0287,-0.0318 c 0.1278,-0.1358 0.231,-0.2956 0.3016,-0.4711 0.0527,-0.1318 0.0876,-0.2727 0.1009,-0.4187 l 5.758,-2.4729 c 0.0853,0.045 0.1757,0.0822 0.2704,0.1102 0.1355,0.0406 0.2789,0.0624 0.4258,0.0624 0.1173,0 0.2355,-0.0147 0.3503,-0.0425 z m -8.161,36.6911 -0.0173,0.0236 -21.4024,1.1933 13.0567,-19.7339 5.0961,11.2833 c -0.0709,0.1015 -0.1298,0.212 -0.1743,0.3294 -0.0624,0.1647 -0.0964,0.3421 -0.0964,0.5252 0,0.2002 0.0405,0.3932 0.1136,0.5695 0.0754,0.1814 0.1866,0.3464 0.3235,0.4836 0.1369,0.1381 0.3021,0.2495 0.485,0.3254 0.1273,0.053 0.2633,0.089 0.4045,0.1049 z m -23.4609,0.8844 c -0.0973,0.0312 -0.1905,0.072 -0.2775,0.1214 -0.1197,0.0677 -0.2288,0.1505 -0.3223,0.244 -0.1361,0.1361 -0.2472,0.3013 -0.3235,0.4859 -0.0666,0.161 -0.1063,0.3359 -0.1128,0.5173 l -9.9743,11.1966 c -0.1743,0.008 -0.3424,0.0476 -0.4974,0.1119 -0.182,0.0754 -0.3464,0.1866 -0.4836,0.3235 -0.1384,0.138 -0.2503,0.3033 -0.3257,0.4853 -0.0735,0.1763 -0.1143,0.3696 -0.1143,0.5703 0,0.2004 0.0406,0.3937 0.114,0.57 0.0742,0.1781 0.182,0.3393 0.3141,0.4743 l -0.5491,19.5015 -10.2813,-21.0334 c 0.0445,-0.0844 0.0808,-0.1729 0.1077,-0.2636 0.0406,-0.1355 0.0624,-0.2789 0.0624,-0.4255 0,-0.2004 -0.0405,-0.3937 -0.1137,-0.5703 -0.0567,-0.1369 -0.1323,-0.2633 -0.2233,-0.375 l 4.4334,-16.3236 c 0.0802,-0.0286 0.1576,-0.0641 0.2304,-0.1055 0.1199,-0.0683 0.229,-0.1505 0.3217,-0.2432 l 0.025,-0.0283 c 0.1284,-0.1352 0.2324,-0.2945 0.303,-0.4683 0.0513,-0.1267 0.0859,-0.2631 0.1006,-0.4062 l 16.2508,-10.4616 c 0.0621,0.0244 0.1261,0.0443 0.191,0.0596 0.1106,0.0258 0.226,0.0399 0.3427,0.0399 0.2005,0 0.3935,-0.0405 0.5701,-0.1136 0.1842,-0.0763 0.3495,-0.1874 0.4856,-0.3235 l 0.0286,-0.0317 c 0.0765,-0.0814 0.1451,-0.1729 0.2027,-0.271 0.0331,-0.0564 0.0626,-0.1151 0.0881,-0.1757 l 12.5822,-2.9645 z m -4.5545,-32.2837 2.5042,13.2607 -13.2599,-4.9155 z m 1.8074,-0.5916 14.762,1.8813 -12.223,11.5657 z m 35.9765,-39.481 -0.6035,-2.2841 c 0.0714,-0.1046 0.1301,-0.2183 0.1729,-0.3382 0.0561,-0.157 0.087,-0.3266 0.087,-0.5023 l -0.005,-0.1176 1.8272,-1.6274 c 0.0499,0.017 0.1015,0.0314 0.1542,0.0434 0.1074,0.024 0.2177,0.0371 0.3283,0.0371 0.1448,0 0.2868,-0.0216 0.4215,-0.0612 0.0876,-0.0258 0.1723,-0.0599 0.2531,-0.1012 l 1.0704,0.5969 c 0.0105,0.1089 0.0331,0.2152 0.066,0.3175 0.0329,0.1018 0.0763,0.1982 0.1284,0.288 l -0.7234,1.4976 c -0.1043,0.0286 -0.2041,0.068 -0.2979,0.1167 -0.1363,0.0712 -0.2597,0.1619 -0.3648,0.2671 -0.1239,0.1238 -0.2271,0.2721 -0.3022,0.4374 -0.0536,0.1153 -0.0921,0.2398 -0.1139,0.3699 l -2.0988,1.0604 z m -1.825,0.4765 c -0.0788,0.1075 -0.144,0.2257 -0.1916,0.3518 -0.0632,0.165 -0.0975,0.3436 -0.0975,0.5287 0,0.2004 0.0405,0.3937 0.1137,0.5703 0.0762,0.1845 0.1873,0.3498 0.3234,0.4859 0.2696,0.2695 0.6438,0.4373 1.0556,0.4373 0.2007,0 0.3946,-0.0405 0.5709,-0.1136 0.1834,-0.076 0.3481,-0.1871 0.4848,-0.3237 l 0.0286,-0.0318 c 0.1046,-0.1117 0.1936,-0.2398 0.2608,-0.379 0.047,-0.0978 0.0842,-0.2024 0.1091,-0.3107 l 2.2014,-1.1123 c 0.0649,0.0255 0.1321,0.0462 0.2004,0.0621 0.1091,0.0249 0.2222,0.0386 0.3359,0.0386 0.2004,0 0.3935,-0.0406 0.5698,-0.1137 0.1822,-0.076 0.3466,-0.1868 0.4833,-0.3232 0.1383,-0.1374 0.2503,-0.3024 0.3257,-0.4841 0.0734,-0.1769 0.1139,-0.3699 0.1139,-0.5712 0,-0.1415 -0.0212,-0.2815 -0.0598,-0.415 -0.0263,-0.0907 -0.0606,-0.1772 -0.102,-0.2588 l 0.7724,-1.5985 c 0.0885,-0.0303 0.1741,-0.0691 0.2548,-0.1153 0.1165,-0.0658 0.2237,-0.148 0.3187,-0.2435 0.1372,-0.1367 0.2486,-0.3011 0.324,-0.4822 0.0734,-0.1769 0.1139,-0.3702 0.1139,-0.5715 0,-0.2004 -0.0405,-0.3931 -0.1137,-0.5697 -0.0762,-0.1843 -0.1873,-0.3495 -0.3234,-0.4856 l -0.0317,-0.0286 c -0.1358,-0.1279 -0.2957,-0.2311 -0.4712,-0.3016 -0.1717,-0.0686 -0.3583,-0.1069 -0.5521,-0.1069 -0.0939,0 -0.188,0.009 -0.2798,0.0266 l -0.1545,0.038 -1.3595,-0.7585 c -0.0295,-0.1041 -0.07,-0.2044 -0.1202,-0.2985 -0.0692,-0.1327 -0.1585,-0.2526 -0.2619,-0.356 -0.1358,-0.1358 -0.3008,-0.2469 -0.485,-0.3232 -0.1766,-0.0737 -0.3699,-0.1142 -0.5706,-0.1142 -0.2002,0 -0.3935,0.0405 -0.5701,0.1136 -0.1845,0.076 -0.3492,0.1871 -0.4858,0.3238 -0.1214,0.1213 -0.2234,0.2664 -0.2983,0.4274 -0.0578,0.1253 -0.0994,0.2597 -0.1213,0.3986 l -2.1415,1.9063 -0.1812,-0.0119 c -0.2001,0 -0.3931,0.0405 -0.5695,0.1136 -0.1819,0.0754 -0.3464,0.1866 -0.4836,0.3235 -0.1383,0.1374 -0.25,0.3021 -0.3257,0.4841 -0.0734,0.1769 -0.1142,0.3699 -0.1142,0.5715 0,0.2001 0.0405,0.3934 0.1137,0.57 0.0759,0.1846 0.1871,0.3493 0.3237,0.4859 0.0842,0.0842 0.1803,0.1599 0.2849,0.2228 0.0615,0.0371 0.1267,0.0703 0.195,0.0989 z m -5.2027,10.0746 c 0,-0.1907 -0.0368,-0.3753 -0.1032,-0.5442 -0.0518,-0.1321 -0.1224,-0.2554 -0.2077,-0.3662 l 1.0012,-4.3209 1.9031,15.8392 -2.7632,-9.9176 c 0.0465,-0.0885 0.0845,-0.1826 0.1126,-0.2801 0.0368,-0.1301 0.0572,-0.2684 0.0572,-0.4102 z m 13.3365,11.848 c -0.0754,0.1052 -0.1372,0.2203 -0.1834,0.3424 -0.0559,0.1497 -0.089,0.3082 -0.095,0.4712 l -7.357,7.9772 -3.3486,-28.0939 4.998,3.0376 c 0.0253,0.1231 0.0661,0.2413 0.1194,0.3515 0.074,0.1525 0.1718,0.2897 0.2874,0.4054 0.133,0.1329 0.292,0.2415 0.4686,0.3172 z m -22.7265,5.0701 -0.0522,-0.1285 -0.0547,-0.106 7.7956,-14.4691 5.3223,19.1032 z m -0.7336,1.8229 0.0898,-0.0499 12.4061,4.1956 -4.9949,2.1455 -0.1372,-0.0292 c -0.0808,-0.0133 -0.161,-0.0201 -0.2398,-0.0201 -0.2007,0 -0.3937,0.0405 -0.5703,0.114 -0.1831,0.0759 -0.3481,0.1876 -0.4847,0.3242 -0.0604,0.0613 -0.1174,0.1285 -0.167,0.1988 l -0.0842,0.1349 -6.7093,2.882 z m 6.0434,8.9714 -0.6179,5.7515 -5.3334,-3.1952 z m -1.254,7.5617 c 0.0224,0.1312 0.0621,0.2574 0.1162,0.375 0.0618,0.1335 0.1432,0.2574 0.2395,0.3662 l -0.0192,0.1526 -0.4607,14.1516 -4.1726,-9.2401 c 0.0162,-0.053 0.0298,-0.1074 0.04,-0.1632 0.0176,-0.0907 0.0267,-0.1832 0.0267,-0.2753 0,-0.2007 -0.0406,-0.3946 -0.1137,-0.5709 -0.076,-0.1834 -0.1874,-0.3486 -0.3235,-0.4847 l -0.104,-0.0938 -0.8424,-7.5807 z m 2.3947,0.9241 0.0159,-0.0131 c 0.0442,-0.0351 0.0833,-0.07 0.1168,-0.1034 0.0946,-0.0947 0.1791,-0.2061 0.248,-0.3297 0.0485,-0.0876 0.089,-0.18 0.1196,-0.2758 l 10.6889,-6.2198 c 0.0805,0.0414 0.1653,0.0757 0.2531,0.1018 0.1369,0.0402 0.2801,0.0623 0.4261,0.0623 0.1545,0 0.3047,-0.0243 0.4459,-0.0686 0.1,-0.0311 0.1961,-0.0737 0.2871,-0.1252 l 12.0629,5.0045 -25.363,18.2628 z m 64.3127,-4.0859 11.0053,10.4125 -11.5345,-2.7192 -0.0502,-0.0698 c -0.0425,-0.0558 -0.0867,-0.1068 -0.1307,-0.1508 l -0.1088,-0.0975 z m -35.1799,0.3801 7.5569,-17.7329 4.6151,12.3619 c -0.0329,0.0507 -0.0624,0.1037 -0.0885,0.1576 -0.028,0.0581 -0.0527,0.1185 -0.0731,0.18 z m 13.5964,-6.8207 -3.4923,-9.3549 5.7282,6.2116 z m 1.1735,1.6042 2.1668,-3.0462 0.1284,0.0369 c 0.1148,0.0281 0.233,0.0428 0.3504,0.0428 0.1468,0 0.2903,-0.0218 0.4257,-0.0621 0.0947,-0.0283 0.1852,-0.0655 0.2705,-0.1105 l 5.758,2.4729 c 0.0133,0.146 0.0482,0.2869 0.1009,0.4187 0.0706,0.1755 0.1738,0.3353 0.3019,0.4708 l 0.0283,0.0321 c 0.0491,0.049 0.1063,0.0977 0.1693,0.1445 l 0.0711,0.0499 0.6251,5.8142 -10.3159,-6.0625 -0.0485,-0.1304 z m 10.3451,33.6685 -0.0173,-0.0236 2.211,-4.8957 c 0.1411,-0.0159 0.2772,-0.0519 0.4045,-0.1049 0.1828,-0.0759 0.3481,-0.1873 0.485,-0.3243 0.1369,-0.1383 0.248,-0.3033 0.3234,-0.4847 0.0732,-0.1763 0.1137,-0.3693 0.1137,-0.5695 0,-0.1831 -0.034,-0.3605 -0.0964,-0.5252 -0.0445,-0.1174 -0.1034,-0.2279 -0.1743,-0.3294 l 5.0961,-11.2833 13.0567,19.7339 z m 23.7211,0.9822 c -0.087,-0.0494 -0.1803,-0.0902 -0.2775,-0.1214 l -13.1553,-19.883 12.5821,2.9645 c 0.0256,0.0606 0.055,0.1193 0.0882,0.1757 0.0575,0.0981 0.1261,0.1896 0.203,0.2707 l 0.0283,0.032 c 0.1361,0.1361 0.3013,0.2472 0.4856,0.3235 0.1766,0.0731 0.3696,0.1136 0.57,0.1136 0.1168,0 0.2322,-0.0141 0.3427,-0.0399 0.0649,-0.0153 0.129,-0.0352 0.1911,-0.0596 l 16.2507,10.4616 c 0.0148,0.1431 0.0494,0.2795 0.1007,0.4062 0.0705,0.1738 0.1746,0.3331 0.303,0.4683 l 0.0249,0.0283 c 0.0927,0.0927 0.2019,0.1749 0.322,0.243 0.0726,0.0416 0.15,0.0771 0.2302,0.1057 l 4.4334,16.3236 c -0.091,0.1117 -0.1667,0.2381 -0.2234,0.375 -0.0731,0.1766 -0.1136,0.3699 -0.1136,0.5703 0,0.1466 0.0218,0.29 0.0623,0.4255 0.027,0.0907 0.0632,0.1792 0.1077,0.2636 l -10.2812,21.0334 -0.5491,-19.5015 c 0.1321,-0.135 0.2398,-0.2962 0.3138,-0.4745 0.0737,-0.1761 0.1142,-0.3694 0.1142,-0.5698 0,-0.2007 -0.0408,-0.394 -0.1142,-0.5703 -0.0754,-0.182 -0.1874,-0.3473 -0.3257,-0.4853 -0.1372,-0.1369 -0.3016,-0.2481 -0.4836,-0.3235 -0.155,-0.0643 -0.3231,-0.1034 -0.4975,-0.1119 l -9.9742,-11.1966 c -0.007,-0.1814 -0.0462,-0.3563 -0.1129,-0.5173 -0.0762,-0.1846 -0.1873,-0.3498 -0.3234,-0.4859 -0.0935,-0.0935 -0.2027,-0.1763 -0.3223,-0.244 z m 1.7728,-19.1444 2.5041,-13.2607 10.7558,8.3452 z m -14.0652,-11.971 14.762,-1.8813 -2.539,13.447 z m -20.611,-43.6464 -0.6035,2.2841 -2.0988,-1.0604 c -0.0218,-0.1301 -0.0604,-0.2546 -0.1128,-0.3699 -0.0763,-0.1653 -0.1794,-0.3136 -0.3033,-0.4374 -0.1052,-0.1052 -0.2285,-0.1959 -0.364,-0.2671 -0.0947,-0.0487 -0.1944,-0.0881 -0.2988,-0.1167 l -0.7234,-1.4976 c 0.0522,-0.0898 0.0956,-0.1862 0.1285,-0.2871 0.0328,-0.1032 0.0555,-0.2095 0.066,-0.3184 l 1.0704,-0.5969 c 0.0808,0.0413 0.1655,0.0754 0.2531,0.1012 0.1346,0.0396 0.2767,0.0612 0.4215,0.0612 0.1106,0 0.2208,-0.0131 0.3283,-0.0371 0.0527,-0.012 0.1043,-0.0264 0.1542,-0.0434 l 1.8272,1.6274 -0.005,0.1176 c 0,0.1757 0.0309,0.3453 0.0871,0.5023 0.0428,0.1199 0.1014,0.2336 0.1729,0.3382 z m 1.4131,3.1124 c -0.0477,-0.1261 -0.1129,-0.2443 -0.1917,-0.3518 l 0.5874,-2.2235 c 0.0683,-0.0286 0.1335,-0.0618 0.195,-0.0989 0.1046,-0.0629 0.2007,-0.1386 0.2849,-0.2228 0.1366,-0.1366 0.2477,-0.3013 0.3237,-0.4847 0.0731,-0.1778 0.1137,-0.3711 0.1137,-0.5712 0,-0.2016 -0.0409,-0.3946 -0.1143,-0.5715 -0.0757,-0.182 -0.1873,-0.3467 -0.3257,-0.4841 -0.1372,-0.1369 -0.3016,-0.2481 -0.4836,-0.3235 -0.1763,-0.0731 -0.3693,-0.1136 -0.5694,-0.1136 l -0.1812,0.0119 -2.1416,-1.9063 c -0.0218,-0.1389 -0.0635,-0.2733 -0.1216,-0.3983 -0.0745,-0.1613 -0.1766,-0.3064 -0.2979,-0.4277 -0.1366,-0.1367 -0.3013,-0.2478 -0.4847,-0.3238 -0.1777,-0.0731 -0.3711,-0.1136 -0.5712,-0.1136 -0.2007,0 -0.394,0.0405 -0.5709,0.1139 -0.184,0.0766 -0.3489,0.1877 -0.4847,0.3235 -0.1035,0.1034 -0.1928,0.2233 -0.2628,0.3554 -0.0493,0.0947 -0.0898,0.195 -0.1193,0.2991 l -1.3595,0.7585 c -0.0499,-0.015 -0.1018,-0.0278 -0.1545,-0.0377 -0.0918,-0.0178 -0.186,-0.0269 -0.2798,-0.0269 -0.1939,0 -0.3804,0.0383 -0.5522,0.1069 -0.1754,0.0705 -0.3353,0.1737 -0.4708,0.3019 l -0.032,0.0283 c -0.1361,0.1361 -0.2472,0.3013 -0.3235,0.4856 -0.0731,0.1766 -0.1136,0.3693 -0.1136,0.5697 0,0.2013 0.0405,0.3946 0.1139,0.5715 0.0754,0.1811 0.1868,0.3455 0.324,0.4822 0.095,0.0955 0.2021,0.1777 0.3175,0.2435 0.0819,0.0462 0.1675,0.085 0.256,0.1153 l 0.7724,1.5985 c -0.0414,0.0816 -0.0757,0.1681 -0.102,0.2588 -0.0386,0.1335 -0.0599,0.2735 -0.0599,0.415 0,0.2013 0.0406,0.3943 0.114,0.5712 0.0754,0.1817 0.1874,0.3467 0.3257,0.4841 0.1366,0.1364 0.301,0.2472 0.4836,0.3229 0.176,0.0734 0.3691,0.114 0.5695,0.114 0.1136,0 0.2267,-0.0137 0.3359,-0.0386 0.0683,-0.0159 0.1355,-0.0366 0.2004,-0.0621 l 2.2014,1.1123 c 0.0249,0.1083 0.062,0.2129 0.1091,0.3107 0.0672,0.1392 0.1562,0.2673 0.2611,0.3787 l 0.0283,0.0321 c 0.1366,0.1366 0.3013,0.2477 0.4847,0.3237 0.1764,0.0731 0.3702,0.1136 0.5709,0.1136 0.4119,0 0.7861,-0.1678 1.0557,-0.4373 0.136,-0.1361 0.2471,-0.3014 0.3234,-0.4859 0.0731,-0.1766 0.1137,-0.3699 0.1137,-0.5703 0,-0.1851 -0.0343,-0.3637 -0.0975,-0.5287 z m 5.1142,9.1786 c -0.0663,0.1689 -0.1032,0.3535 -0.1032,0.5442 0,0.1418 0.0204,0.2801 0.0573,0.4102 0.0281,0.0975 0.066,0.1916 0.1125,0.2801 l -2.7632,9.9176 1.9032,-15.8392 1.0012,4.3209 c -0.0853,0.1108 -0.1559,0.2341 -0.2078,0.3662 z m -13.2562,12.7352 c -0.0462,-0.1227 -0.108,-0.2378 -0.1834,-0.343 l 5.1106,-15.1914 c 0.1766,-0.0757 0.3356,-0.1843 0.4685,-0.3172 0.1157,-0.1157 0.2135,-0.2529 0.2875,-0.4054 0.0533,-0.1102 0.0941,-0.2284 0.1193,-0.3515 l 4.9981,-3.0376 -3.3486,28.0939 -7.357,-7.9772 c -0.006,-0.163 -0.0392,-0.3215 -0.095,-0.4706 z m 22.5958,4.5989 -0.0527,0.1282 -13.011,4.3996 5.3223,-19.1032 7.7956,14.4691 z m 0.6463,1.9333 0.0346,0.0178 0.8915,9.8958 -6.7093,-2.882 -0.0842,-0.1341 c -0.0496,-0.0711 -0.1066,-0.1383 -0.1675,-0.199 -0.1361,-0.1372 -0.3011,-0.2489 -0.4842,-0.3248 -0.1766,-0.0735 -0.3696,-0.114 -0.5703,-0.114 -0.0788,0 -0.1591,0.007 -0.2398,0.0201 l -0.1372,0.0292 -4.995,-2.1455 12.4061,-4.1956 z m -5.3909,14.7407 -0.618,-5.7515 5.9514,2.5563 z m 0.5199,2.1852 c 0.0541,-0.1176 0.0938,-0.2438 0.1162,-0.375 l 5.6137,-3.3633 -0.8424,7.5807 -0.1041,0.0938 c -0.136,0.1361 -0.2474,0.3013 -0.3234,0.4847 -0.0731,0.1763 -0.1137,0.3702 -0.1137,0.5709 0,0.0921 0.009,0.1846 0.0264,0.2753 0.0105,0.0558 0.0241,0.1102 0.0402,0.1632 l -4.1726,9.2401 -0.4612,-14.1516 -0.0187,-0.1526 c 0.0964,-0.1088 0.1778,-0.2327 0.2396,-0.3662 z m -2.2947,0.5363 0.0162,0.0128 0.6987,16.2958 -25.363,-18.2628 12.0629,-5.0045 c 0.0909,0.0515 0.187,0.0941 0.2862,0.1252 0.1421,0.0443 0.2923,0.0686 0.4468,0.0686 0.146,0 0.2891,-0.0221 0.4249,-0.0623 0.089,-0.0261 0.1738,-0.0604 0.2543,-0.1018 l 10.6889,6.2198 c 0.0306,0.0958 0.0711,0.1882 0.1196,0.2758 0.0689,0.1236 0.1533,0.235 0.248,0.3297 z" /><path
         id="path22"
         style="fill:#c0a978;fill-opacity:1;fill-rule:nonzero;stroke:#d3ae6e;stroke-width:0.21600001;stroke-linecap:butt;stroke-linejoin:miter;stroke-miterlimit:22.92558479;stroke-dasharray:none;stroke-opacity:1"
         d="M 479.1611,556.5217 297.4357,661.4654 115.7102,556.5217 V 347.2812 l 107.8844,-62.2871 c 0.2041,-0.1167 0.3399,-0.3058 0.396,-0.5147 0.0567,-0.2089 0.0323,-0.4411 -0.0851,-0.6441 l -1.4995,-2.5962 c -0.1154,-0.2033 -0.3047,-0.3407 -0.5153,-0.3974 -0.2075,-0.0559 -0.438,-0.0323 -0.6415,0.0847 l -109.8125,63.3994 c -0.1326,0.074 -0.2378,0.1829 -0.3112,0.3099 -0.0749,0.1267 -0.114,0.2738 -0.1145,0.4226 l -0.002,213.6861 c -0.002,0.1675 0.0481,0.3248 0.1343,0.4589 0.0839,0.131 0.2027,0.2367 0.3427,0.3053 L 296.9354,666.578 v 0.5771 l 0.5,-0.2885 0.5,0.2885 V 666.578 L 483.3847,559.5086 c 0.1401,-0.0686 0.2588,-0.1743 0.343,-0.305 0.0859,-0.1344 0.1361,-0.2917 0.1361,-0.4592 l -0.004,-213.6841 c -6e-4,-0.1508 -0.0397,-0.2979 -0.1137,-0.4252 -0.0742,-0.1264 -0.1794,-0.2353 -0.3112,-0.3107 l -109.8133,-63.398 c -0.2036,-0.117 -0.434,-0.1406 -0.6415,-0.0847 -0.2106,0.0567 -0.4,0.1941 -0.5159,0.3971 l -1.499,2.5965 c -0.1173,0.203 -0.1417,0.4352 -0.0856,0.6441 0.0567,0.2089 0.1925,0.398 0.3946,0.5147 l 107.8863,62.2871 v 209.2405 z m -86.7021,60.2175 -95.0233,54.7172 -95.0233,-54.7163 -48.7661,-27.9754 -46.6339,-26.6859 -0.0986,-25.5858 -0.5366,-84.3304 -0.4558,-56.2221 -0.5125,-54.6747 c 14.5797,-8.6488 29.1585,-17.2975 43.7323,-25.9534 14.4244,-8.5675 29.0194,-17.2466 43.9529,-26.1474 l 29.6132,-17.7519 c 0.2013,-0.1205 0.3348,-0.3113 0.3878,-0.521 0.0516,-0.2107 0.0238,-0.4411 -0.0958,-0.6412 -0.1202,-0.201 -0.3104,-0.3345 -0.5204,-0.3875 -0.2087,-0.0528 -0.4383,-0.0255 -0.6387,0.0929 l -30.1598,16.7593 -30.1359,16.8452 -61.1249,34.3332 c -0.1437,0.0808 -0.2551,0.1976 -0.3285,0.3317 -0.0746,0.136 -0.1109,0.2922 -0.1038,0.449 l -0.5374,57.2658 -0.455,56.2186 -0.5369,84.3305 -0.1162,30.1141 c -0.002,0.1525 0.0402,0.2979 0.1128,0.4238 0.0757,0.129 0.182,0.2364 0.3093,0.3098 l 50.3308,29.3171 48.6065,28.2466 99.2345,57.4728 v 0.5791 l 0.5,-0.2894 0.5,0.2894 v -0.5791 l 99.2344,-57.4728 48.6066,-28.2466 50.3308,-29.3171 c 0.1273,-0.0734 0.2336,-0.1808 0.3084,-0.3104 0.0734,-0.1253 0.1157,-0.2707 0.1157,-0.4232 l -0.1182,-30.1121 -0.5369,-84.3305 -0.455,-56.2206 -0.5374,-57.2658 c 0.007,-0.1568 -0.0292,-0.313 -0.1038,-0.449 -0.0734,-0.1341 -0.1848,-0.2509 -0.3285,-0.3317 l -61.1229,-34.3332 -30.138,-16.8452 -30.16,-16.7587 c -0.2002,-0.119 -0.4298,-0.1463 -0.6384,-0.0935 -0.21,0.053 -0.4002,0.1865 -0.5204,0.3875 -0.1197,0.2001 -0.1474,0.4305 -0.0958,0.6392 0.053,0.2117 0.1865,0.4025 0.3877,0.523 l 29.6133,17.7519 c 14.9335,8.9008 29.5285,17.5799 43.9529,26.1474 14.5737,8.6559 29.1526,17.3046 43.7323,25.9534 l -0.5125,54.6747 -0.4558,56.2201 -0.5366,84.3304 -0.0986,25.5878 -46.6339,26.6859 z" /></g></g></svg>